<svg id="레이어_1" data-name="레이어 1" xmlns="http://www.w3.org/2000/svg" viewBox="0 0 1080 1080"><defs><style>.cls-1{fill:#fff;}</style></defs><path class="cls-1" d="M515.53.57C217.62,14-13,266.4.57,564.37s265.91,528.47,563.86,515.07,528.53-266,515-563.89S813.54-13,515.53.57Z"/><path d="M437.17,824H642.83c0-145.93-34-280.17-102.83-381.86C471.17,543.83,437.17,678.07,437.17,824Z"/><path d="M622.68,638.58q-2.56-11.15-5.46-22.1Q620.13,627.42,622.68,638.58Z"/><path d="M623.82,643.63c12.68,56.85,19,117.52,19,180.37h0C642.83,761.15,636.5,700.48,623.82,643.63Z"/><path d="M540,442.14q7.49,11.06,14.38,22.62-6.92-11.55-14.38-22.62Z"/><path d="M613.92,604.45c-1.5-5.25-3.07-10.44-4.68-15.61C610.85,594,612.42,599.2,613.92,604.45Z"/><path d="M552.37,424.74l4.19,6.19c35.08,51.83,62,112.54,80,180.43C654,677.11,662.83,748.65,662.83,824H848.48V256C718.89,271.47,620.42,333.39,552.37,424.74Z"/><path d="M575.05,502.64q-5.82-11.81-12.17-23.18Q569.21,490.85,575.05,502.64Z"/><path d="M540,442.14C471.17,543.83,437.17,678.07,437.17,824h0c0-145.93,34-280.17,102.83-381.86Z"/><path d="M443.44,611.36c18-67.89,44.92-128.6,80-180.43l4.19-6.19C459.58,333.39,361.11,271.47,231.52,256V824H417.17C417.17,748.65,426,677.11,443.44,611.36Z"/></svg>