<svg id="레이어_1" data-name="레이어 1" xmlns="http://www.w3.org/2000/svg" viewBox="0 0 1080 1080"><defs><style>.cls-1{fill:#fff;}</style></defs><path class="cls-1" d="M515.53.57C217.64,14-13,266.4.57,564.37s265.93,528.47,563.86,515.07,528.53-266,515-563.89S813.54-13,515.53.57Z"/><path d="M442.41,475.42a191.53,191.53,0,0,0-67.09-39.94c-13.41-4.73-35.53-11.62-54.39-11.62-16.2,0-30,5.14-33.56,21.32-6.72,30.8-3.57,295.51-1.17,326.16,1.69,22.51,11.17,35.66,37.56,35.12C507.84,803.53,556.09,580.4,442.41,475.42Z"/><path d="M653.27,262.83a175.16,175.16,0,0,0-60.87-36.24C580.15,222.27,560.11,216,543,216c-14.82,0-27.34,4.78-30.58,19.44-6,27.89-3.18,268.28-1.08,296.16,1.59,20.35,10.15,32.25,34.12,31.91C712.58,560.7,756.47,358.13,653.27,262.83Z"/><path d="M727.08,486.24a219.79,219.79,0,0,0-76.51-45.6c-15.42-5.48-40.67-13.28-62.1-13.28-18.58,0-34.43,5.88-38.45,24.34-7.75,35.1-4,337-1.32,372.11,2.06,25.72,12.71,40.56,42.79,40.13C801.55,860.66,856.78,606.06,727.08,486.24Z"/></svg>