<svg id="레이어_1" data-name="레이어 1" xmlns="http://www.w3.org/2000/svg" viewBox="0 0 1080 1080"><defs><style>.cls-1{fill:#fff;}</style></defs><path class="cls-1" d="M515.53.57C217.62,14-13,266.4.57,564.37s265.91,528.47,563.86,515.07,528.53-266,515-563.89S813.54-13,515.53.57Z"/><rect x="380.85" y="459.7" width="26.37" height="182.93"/><polygon points="708.59 459.31 639.47 550.8 707.46 642.09 740.42 642.09 672.62 550.8 741.98 459.31 708.59 459.31"/><path d="M813.84,358.89,429.62,230A73.21,73.21,0,0,0,337,276.33L219.78,628.41a73.29,73.29,0,0,0,46.4,92.67l384.22,129A73.44,73.44,0,0,0,743,803.68L860.17,451.6A73.43,73.43,0,0,0,813.84,358.89ZM540.5,786.4,273.83,697.23a48.12,48.12,0,0,1-30.76-60.48L360.59,284.43a47.36,47.36,0,0,1,59.56-30.6l.38.13L476,272.45c67.22,24.92,116.29,96.72,111.52,175a175,175,0,0,1-26.09,82.29,201.13,201.13,0,0,0-77.26-53.54L467,469.46v163.3L484.42,626a200.7,200.7,0,0,0,77-53.85,176.51,176.51,0,0,1-21,214.16l.17-.13Zm5.55-235.47A176.89,176.89,0,0,1,492.48,594V508A175.09,175.09,0,0,1,546.05,550.93Zm290.08-108L718.61,795.23a.93.93,0,0,0,0,.13,47.53,47.53,0,0,1-60,30.35L566.7,795a201.43,201.43,0,0,0,11.62-244.21,201.61,201.61,0,0,0-17.74-250.18l244.8,81.69A48.24,48.24,0,0,1,836.13,442.93Z"/></svg>