<svg id="레이어_1" data-name="레이어 1" xmlns="http://www.w3.org/2000/svg" viewBox="0 0 1080 1080"><defs><style>.cls-1{fill:#fff;}</style></defs><circle class="cls-1" cx="540" cy="540" r="540"/><path d="M499.55,793.57c-94.24,48.91-210.29,12.17-259.2-82.08s-12.16-210.29,82.08-259.2c-.18,2.73-.18,5.47-.18,8.21a215.76,215.76,0,0,0,26.14,102.9l3.82,7a88.88,88.88,0,0,0,147.34,98.89Z"/><path d="M483.86,398.31a95.87,95.87,0,0,0-26.28,133,88.92,88.92,0,0,0-94,23.76q-4.59-8.45-8.33-17.28l.42,1c-.22-.51-.43-1-.65-1.56,0-.12-.1-.23-.14-.35-1.3-3.07-2.54-6.18-3.68-9.34l.78,2a199.65,199.65,0,0,1-6.85-22.36c.23.94.45,1.88.69,2.81-.26-1-.48-2-.72-3a.83.83,0,0,1,0-.15c-.72-2.94-1.39-5.91-2-8.92.57,3,1.23,5.9,1.94,8.81q-1.38-5.71-2.42-11.51-1.44-8.1-2.2-16.16c0,.11,0,.22,0,.33l-.15-1.72c-9-101.12,60.67-194.11,162.5-212.3,107.7-19.24,210.6,52.47,229.84,160.17a209.71,209.71,0,0,0-111.89-4.08l-5.09,1.21v.06A95.87,95.87,0,0,0,483.86,398.31Z"/><path d="M837.1,718.7C785.56,811.52,668.53,845,575.71,793.44V669.35a88.93,88.93,0,1,0,42-138.11,95.93,95.93,0,0,0,7.07-92.88,192.27,192.27,0,0,1,44.52-5.22h.2c1.78,0,3.55,0,5.32.09l1.12,0,1.24,0h-.6a192.39,192.39,0,0,1,85.72,24C855.17,508.84,888.64,625.87,837.1,718.7Z"/></svg>