<svg id="레이어_1" data-name="레이어 1" xmlns="http://www.w3.org/2000/svg" viewBox="0 0 1080 1080"><defs><style>.cls-1{fill:#fff;}</style></defs><path class="cls-1" d="M515.53.57C217.62,14-13,266.4.57,564.37s265.91,528.47,563.86,515.07,528.53-266,515-563.89S813.54-13,515.53.57Z"/><path d="M540.45,670.15c-85.7,10.8-125,38.42-150.29,72.05,43.68,14.95,93.92,23.35,149,23.35,191.12,0,324-101,324-225.52a172.84,172.84,0,0,0-3.07-32.42C853.78,653.77,634.2,658.5,540.45,670.15Z"/><path d="M344.5,437.36c-8.06,0-19.46.82-23.18,1.12V570.7c0,18.1,2.49,19.57,33,19.57,41.68,0,61.94-25.62,61.94-78.26C416.25,461.12,393.45,437.36,344.5,437.36Z"/><path d="M697.51,590.16c29.33,0,43.58-13,43.58-39.66,0-25.29-16.52-38.12-49.2-38.12H677.74v59.46C677.74,585,683.29,590.16,697.51,590.16Z"/><path d="M736,464.9c0-20-12-28.51-40.19-28.51H677.85l-.11,61.84h11.69C721.18,498.23,736,487.65,736,464.9Z"/><path d="M833.09,466.28c-8.77-40.52-50.46-85.1-113.34-116.1-50.28-22.61-111.62-35.77-180.53-35.77-191.09,0-324,101-324,225.62,0,86.76,64.52,162,168.25,199.8,22-57.93,109.64-91,217.4-109.64,22-3.85,63.55-12,105.64-26.56-2.21.1-4.47.16-6.78.16-26.37,0-47.78.43-48,.43H650.4V447.75c0-16.65-1.62-23.91-1.62-23.91l-.37-1.62h54.84c36.89,0,59,14.56,59,39,0,22.42-16.68,37.75-34.09,42.4,26.25,5.62,44.11,23.69,44.11,45.29,0,11.79-3,21.87-8.79,30.06C809.8,553.57,844.12,517.3,833.09,466.28ZM351.71,603.73c-27.38,0-56.29-1-56.59-1h-1.27s.11-145.33.11-148c.19-11.23.36-23.76-2.49-30.67l-.75-1.84H354.8c56.29,0,92.62,33.37,92.62,85C447.42,564.85,409,603.73,351.71,603.73Zm266.61-.83a373.52,373.52,0,0,1-57.09,4.15c-47.47,0-98.19-23.26-98.19-88.56,0-61.21,41.51-97.93,111.09-97.93a222.36,222.36,0,0,1,41.69,5l1,.2v25.62l-2.16-1.93c-12.61-11-32.59-16.61-53.37-15.12-39.48,2.88-67.09,34-67.09,75.73,0,54.65,24.52,82.41,72.84,82.41a106.69,106.69,0,0,0,23.56-2.57c1.21-10.31,1.1-53.79,1.1-54.22,0-13.33-3.09-19.44-3.09-19.44l-1-1.94h30.44v63.2c0,6.22.41,13.43,1.36,24l.06,1.21Z"/></svg>