<svg id="레이어_1" data-name="레이어 1" xmlns="http://www.w3.org/2000/svg" viewBox="0 0 1080 1080"><defs><style>.cls-1{fill:#fff;}</style></defs><path class="cls-1" d="M515.53.57C217.62,14-13,266.4.57,564.37s265.91,528.47,563.86,515.07,528.53-266,515-563.89S813.54-13,515.53.57Z"/><path d="M836.76,670C808.1,575.57,686.14,495.66,540,495.66s-268.06,79.77-296.81,174.1c.22.49.42,1,.64,1.47l.26.55C328.29,640.27,430.23,621.7,540,621.7s211.65,18.57,295.88,50.08a11.21,11.21,0,0,0,.91-1.72,324,324,0,0,1-592.94,1.17l-.66-1.39a.19.19,0,0,1,0-.08,323.11,323.11,0,0,1,.07-259.65C315,246.21,506,171.52,669.92,243.28S908.52,506.07,836.76,670Z"/></svg>