<svg id="레이어_1" data-name="레이어 1" xmlns="http://www.w3.org/2000/svg" viewBox="0 0 1080 1080"><defs><style>.cls-1{fill:#b4b4b4;}</style></defs><path class="cls-1" d="M1079.43,515.55C1065.91,217.67,813.54-13,515.53.57S-13,266.4.57,564.37s265.91,528.47,563.86,515.07S1093,813.44,1079.43,515.55ZM488.9,321.3a54.13,54.13,0,0,1,8.63-28.08,54.77,54.77,0,0,1,21.26-19.09c10.8-5.42,23.5-7.08,35.47-7.08,11,0,31.34.21,30.62,16.11-.49,11.79,4.71,16.54,9.36,26.37a30.76,30.76,0,0,1,2.93,13,54.13,54.13,0,0,1-108.23,0l0,.07ZM657.27,686.84a364.13,364.13,0,0,1-12.47,47.52c-13.71,41.76-33.76,82.34-65,113.79-5.29,5.34-11.82,10.2-19.68,7a10.32,10.32,0,0,1-4.75-3.65c-2.59-3.93-.5-9.09.65-13.15q2.16-7.87,4.32-15.77c13.6-51.28,26.33-106.51,23.76-159.84-.59-12.25-2.06-24.71-7.41-35.73s-15.3-20.41-27.37-22.35A34.22,34.22,0,0,0,528.92,608a32.25,32.25,0,0,0-8.19,5.6,36.93,36.93,0,0,0-8.64,13.71c-6,15.86-3.88,32-1.14,48.26,2.18,12.74.08,27.06-11.54,34.56a34.82,34.82,0,0,1-30.91,2.39,50.32,50.32,0,0,1-23.76-20.77c-17.38-28-17.71-69.12-8.1-99.75A123,123,0,0,1,444,573.77a103.73,103.73,0,0,1,38.88-41.69A114.65,114.65,0,0,1,601,531.37c23.74,13.84,39.59,34.47,51,59a107,107,0,0,1,7.56,25.75l.08,0C663.59,639.47,661.3,664.77,657.27,686.84ZM883.42,369.69c0,6.52-6.44,12.14-11,15.51-24.77,19.2-53.22,34.06-82.07,46-88.18,36.38-186.63,47.93-280.56,60.14q-82.62,10.71-165.72,16c-20.5,1.31-41-9.66-58.32-19.92-17.73-10.67-34.8-24.49-44.54-43.07-8.12-15.49-9.13-38.88,5.19-51.21,10.93-9.36,27.62-8.84,41-7.84,15.76,1.21,31.17,4.73,46.74,7.15,25,3.84,50.09,8.92,74.88,12.48,145,20.91,300.11,11,437.66-41.32,7.06-2.64,14.39-6.61,22-7s14.69,5,14.69,13Z"/></svg>