<svg id="레이어_1" data-name="레이어 1" xmlns="http://www.w3.org/2000/svg" viewBox="0 0 1080 1080"><defs><style>.cls-1{fill:#b4b4b4;}</style></defs><path class="cls-1" d="M1079.43,515.55C1065.91,217.67,813.54-13,515.53.57S-13,266.4.57,564.37s265.91,528.47,563.86,515.07S1093,813.44,1079.43,515.55Zm-322.06,308c-15.18,0-100.34-16.79-122.89-27.4-17.13-8.07-49.4-32.83-89.38-88.17-28.15,19-57.19,36.65-66.29,36.65-5.29,0-13.72-6.16-3.46-13.91,20.44-15.55,38.7-30.45,54.76-44.44-8.07-12.19-16.4-25.57-24.92-40.27-6.58-11.31-13.51-21-13.51-30.13s8.21-10.45,10.61-10.45c5.75,0,15.82,4.81,29.62,19.78q14.93,16.21,30.32,31.46c35.93-35.23,54.24-61.86,54.24-74.22,0-8.58-8.3-15.91-24.51-15.91-17.11,0-78.55,9.51-95.21,12.83-33.77,95.67-64,181.5-68.19,193.14C418.75,800.18,360,824,333.88,824s-21.4-20.86-15.63-33.86l152-347.54c-14.21,1.43-24.32,2.2-41.81,3.85-27.67,2.66-71-22.23-71-46.82,0-14.1,6.42-27.92,31.34-25.42,17.89,1.7,57.72,3.66,111.36,0L541,280.64C546.93,267,557.33,256,571.47,256s33.93,14.9,25.15,40.32c0,0-9.9,28-24.89,70.45,137.56-19.38,123.43-47.25,123.43-47.25s56.23-.48,56.23,43.38c0,20.63-27.93,40.67-62.75,48-25.27,5.26-68.21,11.76-140.18,21.75-8.32,23.55-17.25,48.77-26.3,74.43,13.92-1.78,79.21-10,116.21-10,38.16,0,46.57,17.41,46.57,36.44,0,48.2-61,116.8-95.83,143.15l-3.41,2.55C642,731.49,700.27,773.38,751.26,801.39c9.7,5.37,15.11,9.31,15.11,14.4C766.37,819.64,765.8,823.55,757.37,823.55Z"/></svg>