<svg id="레이어_1" data-name="레이어 1" xmlns="http://www.w3.org/2000/svg" viewBox="0 0 1080 1080"><defs><style>.cls-1{fill:#b4b4b4;}</style></defs><path class="cls-1" d="M327.52,558.11H264.17v46.48h63.46l-.11,0c17.09,0,28.62-10.43,28.62-23.26S344.61,558.11,327.52,558.11Z"/><path class="cls-1" d="M1079.43,515.55C1065.91,217.67,813.54-13,515.53.57S-13,266.4.57,564.37s265.91,528.47,563.86,515.07S1093,813.44,1079.43,515.55ZM331.48,639.19H222.29a2,2,0,0,1-2-2v-139a2,2,0,0,1,2-2h39.89a2,2,0,0,1,2,2v23.39h61.24c16.63,0,27.88-10.17,27.88-22.68S342,476.22,325.41,476.22H222.29a2,2,0,0,1-2-2V442.78a2,2,0,0,1,2-2H333.07c35.88,0,65.6,21.08,65.6,55.64,0,23.24-12.3,37.26-27.36,43.51,19,6.55,30.21,22.31,30.21,41.38C401.52,620.16,372.3,639.19,331.48,639.19Zm142.38-2a2,2,0,0,1-2,2H434.35a2,2,0,0,1-2-2v-139a2,2,0,0,1,2-2H471.9a2,2,0,0,1,2,2Zm154.27-1.47v0a3.5,3.5,0,0,1-3.52,3.48h-42c-27.1,0-39.48-8.67-47.69-27.13L484.55,488.77c-3.95-8.75-9.8-12.57-21.6-12.57H434.36a2,2,0,0,1-2-2V442.76a2,2,0,0,1,2-2h35.4c27,0,41.45,8.69,49.68,27.09l51,124.91c3.09,7.46,7.54,11,16.33,11v-161a2,2,0,0,1,2-2h37.45l0,.05a2,2,0,0,1,2,2Zm81.32,3.54h-42a3.52,3.52,0,0,1-3.52-3.48v-193a2,2,0,0,1,2-1.94h37.52a2,2,0,0,1,1.94,2v161c8.79,0,13.24-3.54,16.33-11l51-124.92c8.16-18.44,22.55-27.08,49.68-27.08H845.9a2,2,0,0,1,1.94,2v31.41a2,2,0,0,1-2,2h-16.7l-.09,0c-11.73,0-17.54,3.83-21.6,12.57L757.17,612.15C749,630.64,736.58,639.28,709.45,639.28Zm157.44-.09H821.53a8.44,8.44,0,0,1-7.56-3.67l-28.08-37.67a.79.79,0,0,1,0-.76l17.28-42.33c.07-.2.37-.24.54,0L868,637v-.05a1.34,1.34,0,0,1-1.06,2.27Z"/></svg>