<svg id="레이어_1" data-name="레이어 1" xmlns="http://www.w3.org/2000/svg" viewBox="0 0 1080 1080"><defs><style>.cls-1{fill:#b4b4b4;}</style></defs><path class="cls-1" d="M1079.43,515.55C1065.91,217.67,813.54-13,515.53.57S-13,266.4.57,564.37s265.91,528.47,563.86,515.07S1093,813.44,1079.43,515.55ZM362.06,631h-43.7v-85.6c0-14-7.47-24.95-23.48-24.95s-24.64,12.29-24.64,25.25V631h-44.6v-85.6c0-14-7.41-24.95-23.76-24.95-15.73,0-24.37,12.18-24.37,25.55v85H132.32V483.3h43.1v16.94c7.45-13.07,26.46-21.38,42.5-21.38,21.11,0,36.27,8.61,43.68,23.17,11.6-16.69,25.88-23.17,45.77-23.17,27.95,0,54.69,16.33,54.69,56.44Zm163.1-62.28h-104c.9,16.83,16.24,28.84,34,28.84,14.22,0,23.09-5.77,28-14.86l37.36,14.19c-9.54,22.16-32.07,39.44-65.94,39.44-41,0-77.76-29.44-77.76-79.64,0-48.08,35.77-78.73,74.54-78.73,46.29,0,74.84,28.55,74.76,76.64A95.31,95.31,0,0,1,525.16,568.73Zm110.53-40.84a60.74,60.74,0,0,0-14.28-1.49c-18.21,0-34.56,10.69-34.56,40.11v64.56H541.66V483.37h43.7v19.92c7.75-16.72,26.46-21.48,38.43-21.48a45.57,45.57,0,0,1,11.9,1.49ZM696.25,631H651.09V483.3h45.16ZM674,458.74a29.14,29.14,0,1,1-.64-58.27h.37a29.14,29.14,0,0,1,.27,58.27Zm132.84,64.09H778v55.28c0,12.18,6.52,15.46,16.35,15.46a56,56,0,0,0,11.88-1.49v37.44c-1.8.88-9.22,4.14-23.5,4.14-30.59,0-49.31-18.12-49.31-47.52V522.83H707.25V483.3h7.43c15.46,0,22.87-10.41,22.87-24.06v-19H778V483.3h28.83Zm140.86,69.25V631H823.76V591.18L888,522.83H825.53V483.3h121v37.16l-67.48,71h68.67Z"/><path class="cls-1" d="M451.92,514c-19.25,0-28.86,14.11-29.77,25.23H482C481.38,527.84,473.52,514,451.92,514Z"/></svg>