<svg id="레이어_1" data-name="레이어 1" xmlns="http://www.w3.org/2000/svg" viewBox="0 0 1080 1080"><defs><style>.cls-1{fill:#b4b4b4;}</style></defs><path class="cls-1" d="M579.29,495.75A20.71,20.71,0,0,0,558.58,475h-58v41.42h58A20.71,20.71,0,0,0,579.29,495.75Z"/><path class="cls-1" d="M565.25,551.7h-64.7V605h64.7a26.63,26.63,0,0,0,0-53.26Z"/><path class="cls-1" d="M1079.43,515.55C1065.91,217.67,813.54-13,515.53.57S-13,266.4.57,564.37s265.91,528.47,563.86,515.07S1093,813.44,1079.43,515.55ZM423.76,640.2H380.1V477.38l-52.4,73.4h38.73V586H302.54L263.86,640.2H216L359.06,439.8h64.7Zm141.49,0H456.9V439.8H565.25c30.9,0,56,23.26,56,51.94a49.84,49.84,0,0,1-15.26,35.63c18.78,11.16,31.1,29.81,31.1,51C637,620.21,604.9,640.2,565.25,640.2Zm98.35,0V439.8h43.66V605H837.7L864,640.2Z"/></svg>