<svg id="레이어_1" data-name="레이어 1" xmlns="http://www.w3.org/2000/svg" viewBox="0 0 1080 1080"><defs><style>.cls-1{fill:#b4b4b4;}</style></defs><path class="cls-1" d="M1079.43,515.55C1065.91,217.67,813.54-13,515.53.57S-13,266.4.57,564.37s265.91,528.47,563.86,515.07S1093,813.44,1079.43,515.55ZM527.07,671.11V824H263.54V406.43A150.43,150.43,0,0,1,414,256h30.1v83H414a67.5,67.5,0,0,0-67.5,67.5V741h97.53V588.12H622.21v83ZM622.21,824V749.67c49.14,0,117.46-31.33,117.46-109.34s-64.19-104.22-64.19-104.22c24.45,0,44.26-36.16,44.26-60.61V339H622.21V491.88H444.07v-83h95.14V256H802.74V475.5c0,49.14-31.53,60.61-31.53,60.61S816.46,570,816.46,638.49C816.46,821.54,622.21,824,622.21,824Z"/></svg>