<svg id="레이어_1" data-name="레이어 1" xmlns="http://www.w3.org/2000/svg" viewBox="0 0 1080 1080"><defs><style>.cls-1{fill:#b4b4b4;}</style></defs><path class="cls-1" d="M371.07,482.48c-25.3,0-44.74,25.79-44.74,57.53s19.36,57.54,44.74,57.54S415.89,571.8,415.89,540,396.36,482.48,371.07,482.48Z"/><path class="cls-1" d="M1079.43,515.55C1065.91,217.67,813.54-13,515.53.57S-13,266.4.57,564.37s265.91,528.47,563.86,515.07S1093,813.44,1079.43,515.55ZM281.38,607.18H178.07A16.07,16.07,0,0,1,162,591.11v-119h40.39V583a8,8,0,0,0,8.08,8h70.91Zm89.69,6.14c-53.05,0-84.8-32.84-84.8-73.31s31.75-73.32,84.8-73.32S456,499.53,456,540,424.12,613.32,371.07,613.32Zm237.34-125h-47.2V607.18H519.13V488.34H463.3V472.12H608.41Zm160.48,0h-56V607.18H670.85V488.34H623.74V472.12H768.89Zm149.17-.3H840.3a8.07,8.07,0,0,0-8.12,8v31.49h84.54V543.4h-84.6v39.78h0a8.09,8.09,0,0,0,8.12,8.08H918v15.92H807.84a16.11,16.11,0,0,1-16.07-16.09V488.17a16.09,16.09,0,0,1,16.07-16.05H918.06Z"/></svg>