<svg id="레이어_1" data-name="레이어 1" xmlns="http://www.w3.org/2000/svg" viewBox="0 0 1080 1080"><defs><style>.cls-1{fill:#b4b4b4;}</style></defs><path class="cls-1" d="M805.38,382.32l-244.8-81.69a201.61,201.61,0,0,1,17.74,250.18A201.43,201.43,0,0,1,566.7,795l91.9,30.69a47.53,47.53,0,0,0,60-30.35.93.93,0,0,1,0-.13l117.52-352.3A48.24,48.24,0,0,0,805.38,382.32Zm-65,259.77h-33l-68-91.28,69.12-91.5H742l-69.36,91.5Z"/><path class="cls-1" d="M561.45,572.17a200.7,200.7,0,0,1-77,53.85L467,632.76V469.46l17.15,6.7a201.13,201.13,0,0,1,77.26,53.54,175,175,0,0,0,26.09-82.29c4.77-78.24-44.3-150-111.52-175L420.53,254l-.38-.13a47.36,47.36,0,0,0-59.56,30.6L243.07,636.75a48.12,48.12,0,0,0,30.76,60.48L540.5,786.4l.17-.2-.17.13A176.51,176.51,0,0,0,561.45,572.17ZM407.23,642.63H380.85V459.7h26.38Z"/><path class="cls-1" d="M492.48,594a176.89,176.89,0,0,0,53.57-43.08A175.09,175.09,0,0,0,492.48,508Z"/><path class="cls-1" d="M1079.43,515.55C1065.91,217.67,813.54-13,515.53.57S-13,266.4.57,564.37s265.91,528.47,563.86,515.07S1093,813.44,1079.43,515.55ZM860.17,451.6,743,803.68a73.44,73.44,0,0,1-92.64,46.44l-384.22-129a73.29,73.29,0,0,1-46.4-92.67L337,276.33A73.21,73.21,0,0,1,429.62,230L813.84,358.89A73.43,73.43,0,0,1,860.17,451.6Z"/></svg>