<svg id="레이어_1" data-name="레이어 1" xmlns="http://www.w3.org/2000/svg" viewBox="0 0 1080 1080"><defs><style>.cls-1{fill:#b4b4b4;}</style></defs><path class="cls-1" d="M1079.43,515.55C1065.91,217.67,813.54-13,515.53.57S-13,266.4.57,564.37s265.91,528.47,563.86,515.07S1093,813.44,1079.43,515.55ZM365,331.13l145-98.23a53.48,53.48,0,0,1,60,0l145,98.23a53.48,53.48,0,1,1-60,88.55l-105.5-71.49a16.83,16.83,0,0,0-18.9,0L425,419.68a53.48,53.48,0,0,1-60-88.55ZM300.61,454.91l44.23-27.86a71.93,71.93,0,0,0,90.52,8l81.95-55.54a40.33,40.33,0,0,1,45.23,0L644.48,435a71.93,71.93,0,0,0,90.52-8l44.18,27.84c29.82,18.78,40.38,58.29,21.93,88.31a63.75,63.75,0,0,1-88.33,20.59L561.41,468.43a40.27,40.27,0,0,0-43,0L367.07,563.79a63.78,63.78,0,0,1-89.53-22.61C260.62,511.3,271.56,473.22,300.61,454.91Zm326,401.4H453.34a26.68,26.68,0,0,1-22.74-40.64l86.67-141.11a26.68,26.68,0,0,1,45.46,0L649.4,815.67A26.68,26.68,0,0,1,626.66,856.31ZM852.8,705.63a74,74,0,0,1-102.89,22.46L557.13,602.87a31.63,31.63,0,0,0-34.42,0L329.93,728.09A74.05,74.05,0,0,1,228.27,707.5c-23.26-34.38-12.2-82.06,22.61-104.67l36-23.39a83.58,83.58,0,0,0,90.7,1.06l145.49-91.66a31.61,31.61,0,0,1,33.68,0L702.25,580.5a83.53,83.53,0,0,0,90.7-1.06l36,23.4C863.28,625.12,874.7,671.09,852.8,705.63Z"/></svg>