<svg id="레이어_1" data-name="레이어 1" xmlns="http://www.w3.org/2000/svg" viewBox="0 0 1080 1080"><defs><style>.cls-1{fill:#b4b4b4;}</style></defs><path class="cls-1" d="M540,0C241.77,0,0,241.77,0,540s241.77,540,540,540,540-241.77,540-540S838.23,0,540,0ZM704.16,721.55H220.69c-27.05,0-38.69-17-34.17-38,2.42-11.51,11.16-21.79,23-28.79L432,540,313,461.54l-33.4,157.08-116.64-77a1.53,1.53,0,0,1-.89-1,1.51,1.51,0,0,1,1-1.88L312.91,461.5,258.1,425.37a28.19,28.19,0,0,1-10.8-28.82c4.49-21,23.37-38,50.37-38H781.38c1.58,0,1.71.48.32,1.17L432.13,540H432L704.68,720C706,720.88,705.74,721.55,704.16,721.55Zm52.92-102.93H551.62L585,461.35H790.56c1.45,0,1.6.61.24,1.32L640.68,540.11l116.85,77C758.79,618,758.64,618.62,757.08,618.62Zm63.16,0H790.75a11.37,11.37,0,0,1-5.14-1.49L670.92,541.66c-1.28-.86-1.23-2.18.15-2.8l147.85-76.19a13.65,13.65,0,0,1,5.25-1.32h29.51c1.49,0,1.68.61.3,1.32L703.64,540.11l117.05,77C821.94,618,821.77,618.62,820.24,618.62Zm96.87-155.95L766.8,540.11l117.07,77c1.32.85,1.08,1.49-.43,1.49H853.83a10.9,10.9,0,0,1-5.1-1.49L734,541.66c-1.25-.86-1.23-2.18.13-2.8L882,462.67a13.88,13.88,0,0,1,5.25-1.32h29.49C918.3,461.35,918.43,462,917.11,462.67Z"/></svg>