<svg id="레이어_1" data-name="레이어 1" xmlns="http://www.w3.org/2000/svg" viewBox="0 0 1080 1080"><defs><style>.cls-1{fill:#b4b4b4;}</style></defs><path class="cls-1" d="M626.7,486.78c59.77-27.83,54.41-83.1,54.41-83.1v-.42c0-20.18-5.24-49-50.55-66.85a171.58,171.58,0,0,0-29.06-8.33V663.77c23.93-3.54,46.5-11.74,64.37-23.65,16.15-10.77,35.39-29.42,35.39-57.07a74.85,74.85,0,0,0-22.44-54.41C663.79,513.59,626.7,486.78,626.7,486.78Z"/><path class="cls-1" d="M540,0C241.77,0,0,241.77,0,540s241.77,540,540,540,540-241.77,540-540S838.23,0,540,0ZM438.9,723.73H347.47c26.16-16.72,80-70.77,80-118.77,0-27.79-24.18-49.93-37.18-61.87l-3-2.77c-.87-.89-4.19-3.25-6.55-5.15-21-15.94-70.06-53.28-70.06-124.6,0-49.91,15.87-89.36,47.34-117.27,30.67-27.23,86.09-34.61,130.52-35.67V325.3c-32.24.37-69.07,4.58-85.39,19.19s-24.25,36.22-24.25,66.08c0,34.61,20.45,53,43.17,70.3,4.48,3.41,8.35,6.36,11.81,9.58l2.59,2.41C454.2,509.14,495.7,547.29,495.7,605,495.7,644.21,476.54,684.1,438.9,723.73Zm162.54,8.75L601.5,824H533.34V256.15l33.94-.15h.42c11.11,0,93,1.76,143.74,52.29,24.77,24.62,37.87,57.41,37.87,94.67.26,19.77-5.25,50.82-23.5,76.15,21.47,21.38,43.55,55.19,43.55,103.91C769.36,668.67,688,723.12,601.44,732.48Z"/></svg>