<svg id="레이어_1" data-name="레이어 1" xmlns="http://www.w3.org/2000/svg" viewBox="0 0 1080 1080"><defs><style>.cls-1{fill:#b4b4b4;}</style></defs><path class="cls-1" d="M540,232.22a306.32,306.32,0,0,0-217.14,90c46.85-11.13,72.74,23.5,55.5,65.14-10.26,25.08-53.18,42.6-75.87,65.34-52.48,52.54-38.36,149.71,15.61,168.35C368,638,320.86,547.65,368,508.36c50-38.3,178.66,28.59,75.57,115.79C419.29,642,415.75,647.85,400,663.64,315.57,748.07,452.5,843.8,552.78,831.58c88.74-10.8,113.2-69.12,125.48-152.22,11.19-75.68-3.91-102.12,7.9-157.16,31.74-87.57,122.84-38.88,161.38,8.89C842.78,365.25,706.94,232.27,540,232.22ZM756.59,426.73c-15,20.74-52.14,19.22-83.1-3s-43.89-57.44-29-78.17,52.16-19,83.14,3.23S771.55,406,756.59,426.73Z"/><path class="cls-1" d="M1079.43,515.55C1065.91,217.67,813.54-13,515.53.57S-13,266.4.57,564.37s265.91,528.47,563.86,515.07S1093,813.44,1079.43,515.55ZM863.05,557.28C854.05,728.14,713.19,864,540,864c-2.1,0-4.2,0-6.29-.08H533c-1.52,0-3-.08-4.56-.14l-3.4-.13c-1.24,0-2.48-.12-3.72-.19l-4.27-.27-3.17-.23c-1.7-.14-3.4-.29-5.09-.46l-2.43-.22c-2.53-.27-5.05-.55-7.57-.87l-.24,0c-2.43-.31-4.86-.66-7.28-1l-2.21-.35c-1.78-.29-3.55-.58-5.33-.89l-2.5-.45q-2.56-.46-5.13-1l-2.34-.48c-1.91-.39-3.81-.81-5.71-1.24l-1.59-.36A323.45,323.45,0,0,1,337.41,793c-124.28-99.5-155.78-272-82.28-407.15C309.92,284.7,417,216,540,216h.11C719,216,864,361.26,864,540,864,545.83,863.42,551.49,863.05,557.28Z"/></svg>