<svg id="레이어_1" data-name="레이어 1" xmlns="http://www.w3.org/2000/svg" viewBox="0 0 1080 1080"><defs><style>.cls-1{fill:#b4b4b4;}</style></defs><path class="cls-1" d="M1079.43,515.55C1065.91,217.67,813.54-13,515.53.57S-13,266.4.57,564.37s265.93,528.47,563.86,515.07S1093,813.44,1079.43,515.55Zm-839.95,58c-2.57,18.27-18.64,25-38.21,25-20.28,0-39.27-7.36-39.27-31.75v-8.44h29.05v12a9.74,9.74,0,0,0,10.8,8.49,9.35,9.35,0,0,0,10.52-7.33,14.57,14.57,0,0,0-.21-8.12c-5.58-14.15-44-20.63-48.65-42.88a38.7,38.7,0,0,1-.15-14.86c2.92-17.79,18.62-24.27,37.82-24.27,15.3,0,36.42,3.78,36.42,27.54v7.71H210.52v-6.76a9.64,9.64,0,0,0,0-1.52h0a9.25,9.25,0,0,0-10-8.4,8.94,8.94,0,0,0-9.87,7.35,14.31,14.31,0,0,0,.13,5.72c3.05,12.81,44,19.63,48.6,42.57A54.11,54.11,0,0,1,239.48,573.55Zm77.11,20.78-14.4-99.23-.59,0-14.75,99.36H257.63l20-109.39h48.06l19.89,109.3Zm143.71,0L459.61,496H459L441,594.33H413.58L395.52,496h-.58l-.7,98.32h-27L369.58,485h44.06L427,568.58l.71,0L441,484.93h44l2.38,109.38Zm130.16-21.06C587.91,591.35,572,598,552.66,598c-20.09,0-38.88-7.3-38.88-31.45v-8.36h28.64v11.95a.59.59,0,0,0,0,.13,9.59,9.59,0,0,0,10.78,8.23,9.26,9.26,0,0,0,10.43-7.28,14.45,14.45,0,0,0-.21-8c-5.51-14-43.53-20.42-48.15-42.54a37.76,37.76,0,0,1-.26-14.6c2.83-17.69,18.4-24,37.39-24,15.16,0,36.09,3.7,36.09,27.26v7.63H561.79v-6.68a7.62,7.62,0,0,0,0-1.51h0a9.15,9.15,0,0,0-9.93-8.31,8.83,8.83,0,0,0-9.76,7.28,13.93,13.93,0,0,0,.12,5.68c3,12.68,43.61,19.42,48.11,42.12A53.35,53.35,0,0,1,590.46,573.25Zm101.65-9.94c0,2-.18,6.11-.28,7.19-1.91,20.42-17.82,27-37.7,27s-35.81-6.63-37.71-27c0-1-.3-5.16-.24-7.19V484.9h27.33v81a21.29,21.29,0,0,0,.26,4.14A10.76,10.76,0,0,0,664.5,570a22.42,22.42,0,0,0,.26-4.17V484.88h27.35ZM813,593.16H774.55l-26.65-88.8h-.54l1.49,88.8H722.17V484.93h40.11l24.82,85.86h.65l-1.51-85.86H813Zm105-31a66.71,66.71,0,0,1-.39,7.21c-1.79,19.92-18.84,27-38,27s-36.2-7.08-38-27a66.71,66.71,0,0,1-.39-7.21V516.25c0-2,.24-5.38.46-7.22,2.41-20.43,18.74-27,37.92-27s35.93,6.48,37.93,27c.2,2.4.28,4.82.24,7.22v3.62H890.52v-6.13a22.42,22.42,0,0,0-.34-4.17,9.83,9.83,0,0,0-10.8-7.93,10,10,0,0,0-10.8,7.93,24.39,24.39,0,0,0-.44,5.18v50a26.2,26.2,0,0,0,.24,4.15,11.73,11.73,0,0,0,22.16-.13,21.34,21.34,0,0,0,.26-4.15V548.75H879.72V532.88H918Z"/></svg>