<svg id="레이어_1" data-name="레이어 1" xmlns="http://www.w3.org/2000/svg" viewBox="0 0 1080 1080"><defs><style>.cls-1{fill:#b4b4b4;}</style></defs><path class="cls-1" d="M561.23,607.05a373.52,373.52,0,0,0,57.09-4.15l1.21-.19-.06-1.21c-1-10.61-1.36-17.82-1.36-24v-63.2H587.67l1,1.94s3.09,6.11,3.09,19.44c0,.43.11,43.91-1.1,54.22a106.69,106.69,0,0,1-23.56,2.57c-48.32,0-72.84-27.76-72.84-82.41,0-41.73,27.61-72.85,67.09-75.73,20.78-1.49,40.76,4.17,53.37,15.12l2.16,1.93V425.72l-1-.2a222.36,222.36,0,0,0-41.69-5c-69.58,0-111.09,36.72-111.09,97.93C463,583.79,513.76,607.05,561.23,607.05Z"/><path class="cls-1" d="M447.42,507.19c0-51.6-36.33-85-92.62-85H290.72l.75,1.84c2.85,6.91,2.68,19.44,2.49,30.67,0,2.63-.11,148-.11,148h1.27c.3,0,29.21,1,56.59,1C409,603.73,447.42,564.85,447.42,507.19Zm-93.11,83.08c-30.5,0-33-1.47-33-19.57V438.48c3.72-.3,15.12-1.12,23.18-1.12,48.95,0,71.75,23.76,71.75,74.65C416.25,564.65,396,590.27,354.31,590.27Z"/><path class="cls-1" d="M1079.43,515.55C1065.91,217.67,813.54-13,515.53.57S-13,266.4.57,564.37s265.91,528.47,563.86,515.07S1093,813.44,1079.43,515.55ZM215.22,540c0-124.61,132.91-225.62,324-225.62,68.91,0,130.25,13.16,180.53,35.77,62.88,31,104.57,75.58,113.34,116.1,11,51-23.29,87.29-69.66,112.68,5.77-8.19,8.79-18.27,8.79-30.06,0-21.6-17.86-39.67-44.11-45.29,17.41-4.65,34.09-20,34.09-42.4,0-24.43-22.06-39-59-39H648.41l.37,1.62s1.62,7.26,1.62,23.91V604.22h1.36c.19,0,21.6-.43,48-.43,2.31,0,4.57-.06,6.78-.16-42.09,14.59-83.66,22.71-105.64,26.56-107.76,18.68-195.39,51.71-217.4,109.64C279.74,702,215.22,626.79,215.22,540Zm476.67-27.65c32.68,0,49.2,12.83,49.2,38.12,0,26.68-14.25,39.66-43.58,39.66-14.22,0-19.77-5.14-19.77-18.32V512.38Zm-14.15-14.15.11-61.84h17.91c28.18,0,40.19,8.53,40.19,28.51,0,22.75-14.77,33.33-46.52,33.33ZM539.2,765.55c-55.12,0-105.36-8.4-149-23.35,25.27-33.63,64.59-61.25,150.29-72.05,93.75-11.65,313.33-16.38,319.68-162.54A172.84,172.84,0,0,1,863.2,540C863.2,664.59,730.32,765.55,539.2,765.55Z"/></svg>