<svg id="레이어_1" data-name="레이어 1" xmlns="http://www.w3.org/2000/svg" viewBox="0 0 1080 1080"><defs><style>.cls-1{fill:#b4b4b4;}</style></defs><path class="cls-1" d="M396.42,474a43.45,43.45,0,0,0-28.77-5.27c18.32-19.46,28.26-40.63,28.26-62,0-2-.11-3.91-.26-5.87-1-13.29-7-23.16-16.57-26.66s-26.89-1.75-54.69,26.55l-16.55,18.62c-4.53,5.48-22,32-25.27,59.48-5.4,46.81-1.92,93.45,10,134.87,1.45,4.82,5.77,16.55,16.57,20.87,11.44,4.6,22.27-1,31.79-5.9l2.55-1.27,9.85-4.32,9.59-4.32,11.79-5.19c8.36-3.32,16.27-6.48,23.87-13a69.19,69.19,0,0,0,21.6-33,112.36,112.36,0,0,0,4.08-22.34,107.25,107.25,0,0,0-1.25-30C417.72,491.1,405.63,479.48,396.42,474ZM340.57,594.93l-.52.21-19.27,9.49a2.94,2.94,0,0,1-2.16-.15c-1.16-.59-1.6-1.39-2.33-3.44a406.82,406.82,0,0,1-12.66-146.47,23.31,23.31,0,0,1,4.93-11.42l16-17.28,1.88-1.95c8.84-8.6,17-12.81,21.43-11,3.82,1.55,4.79,7.45,4.79,12.16.67,25.16-13.35,50.89-43,78.6a6.47,6.47,0,0,0-2,5.21c0,.21.45,6.18.45,6.18a3.39,3.39,0,0,0,1.92,3.17,3.24,3.24,0,0,0,3.5-.69c10.43-8.71,26.22-16.46,38.88-12.14,9.83,3.46,16.63,13.67,20,30.48C379.73,571,355.58,588,340.57,594.93Z"/><path class="cls-1" d="M670.25,479c-1-3.8-2.7-4.92-5.36-4.92a7.46,7.46,0,0,0-4.32,2.68c-13.26,15.31-33.39,26-58.62,31-64.58,12.4-114.33-17.77-126.64-77-5.29-25.62-1.06-50,12.42-69.29s35.49-32.12,62-36.12A112.42,112.42,0,0,1,609,332.66s7.87,2.27,6.16-5.46c-5.42-18.56-14.34-22.47-16.87-23.33A146.78,146.78,0,0,0,528,299c-35.1,6.48-65.47,24.84-85.54,51.84a128.15,128.15,0,0,0-23,99.47c6.33,35.92,24.58,65,52.66,84,33,22.25,76.94,29,123.88,19.12,27.67-6,50.69-16.76,68.43-32.08a27.94,27.94,0,0,0,9.5-21.81S674.2,494.64,670.25,479Z"/><path class="cls-1" d="M540,0C241.79,0,0,241.75,0,540s241.79,540,540,540,540-241.77,540-540C1080,241.92,838.21,0,540,0Zm0,818.64c-153.89,0-278.64-124.75-278.64-278.64S386.11,261.36,540,261.36,818.64,386.11,818.64,540,693.89,818.64,540,818.64Z"/></svg>