<svg id="레이어_1" data-name="레이어 1" xmlns="http://www.w3.org/2000/svg" viewBox="0 0 1080 1080"><defs><style>.cls-1{fill:#b4b4b4;}</style></defs><path class="cls-1" d="M540.32,581.41,433.06,643.74v.2l.95-.54c38.12,30.11,74.52,40.09,106,40.09s67.87-10,106-40.07l1,.54v-.2L540.32,581.43Z"/><path class="cls-1" d="M379.19,550.71l106.94-59.9.58-127.95h-.58S357.22,397.91,379,550.52Z"/><path class="cls-1" d="M593.87,362.86h-.58l.58,128,106.94,59.9.15-.19h0C722.78,397.91,593.87,362.86,593.87,362.86Z"/><path class="cls-1" d="M1079.43,515.55C1065.91,217.67,813.54-13,515.53.57S-13,266.4.57,564.37s265.91,528.47,563.86,515.07S1093,813.44,1079.43,515.55ZM836.72,631.47s-41,130.43-199.28,150.32v72H559.68V747.68s82.44-.67,145.41-69.94l-19.44-11.38c-3.63,3.43-63.48,58.82-145.13,60.26h-.95c-81.65-1.44-141.5-56.83-145.13-60.26l-19.55,11.38c63,69.27,145.41,69.94,145.41,69.94V853.83H442.54v-72C284.3,761.9,243.26,631.47,243.26,631.47,233.28,600,216,592.23,216,592.23c45.49-7.58,61.76,27.15,61.76,27.15,28.64,71.19,76.63,91.32,76.63,91.32-141.24-143.12-55-308-55-308,20.84-37-5.7-53.07-5.7-53.07C354.39,364.76,335.43,415,335.43,415c-30.48,72.59-24.35,131.58-14,168.07l20-11.21-.32-.46S293.76,384.76,486.93,319.31l.15-35.12h40.76V515.46l-189.56,108q5.21,10.51,10.93,19.87L540.41,533,730.79,643.33q5.75-9.33,10.93-19.87l-189.56-108V284.21h40.76l.17,35.12c193.15,65.45,145.8,252.07,145.8,252.07l-.32.46,20,11.21c10.35-36.48,16.48-95.47-14-168.07,0,0-19-50.26,41.71-65.38,0,0-26.54,16.11-5.7,53.07,0,0,86.27,164.89-55,308,0,0,48-20,76.66-91.32,0,0,16.24-34.73,61.71-27.15C864,592.23,846.8,600,836.72,631.47Z"/></svg>