<svg id="레이어_1" data-name="레이어 1" xmlns="http://www.w3.org/2000/svg" viewBox="0 0 1080 1080"><defs><style>.cls-1{fill:#b4b4b4;}</style></defs><path class="cls-1" d="M1079.43,515.55C1065.91,217.67,813.54-13,515.53.57S-13,266.4.57,564.37s265.91,528.47,563.86,515.07S1093,813.44,1079.43,515.55ZM348.21,649.32a86.16,86.16,0,0,0,64.87-29.5l32.4,32.4q-4.37,4.75-9.18,9.07a132.19,132.19,0,1,1,10.24-186.67L414.14,507a86.4,86.4,0,1,0-65.93,142.3Zm172.07,45.13H464.64V430.67h55.64Zm140.55.1c-54.09,0-55.14-55.18-55.14-55.18V484.49H561V436.65h44.72V390.19l55.66-27.43v73.89h45.23v47.84H661.35V639.37c11.9,11.49,22.09-.54,22.09-.54h43.68C727.12,667.94,714.92,694.55,660.83,694.55Zm150.68-.1H755.87V430.67h55.64ZM790.75,398.63c-43.89-45.72-96.87-72.47-153.92-72.47s-110.05,26.77-153.94,72.47H409.65C469,327.83,548.9,284.37,636.83,284.37S804.64,327.83,864,398.63Z"/></svg>