<svg id="레이어_1" data-name="레이어 1" xmlns="http://www.w3.org/2000/svg" viewBox="0 0 1080 1080"><defs><style>.cls-1{fill:#b4b4b4;}</style></defs><path class="cls-1" d="M1079.43,515.55C1065.91,217.67,813.54-13,515.53.57S-13,266.4.57,564.37s265.91,528.47,563.86,515.07S1093,813.44,1079.43,515.55ZM340.42,365l2.74-4.29c11.95-18.95,34.17-31.32,62.25-31.32H563.74L422.91,551.91a41.84,41.84,0,0,0-4.47,10.32l-57.7-87.8C346.68,452.46,328.67,395.72,340.42,365ZM405.61,829.6c-25.41,0-50.38-14.5-61.17-31.24L224.3,609.56c-11.34-17.65-10.8-45.58,0-62.64l105.62-165.5c-12.7,25.2.24,77.24,16.29,102.27L566.59,829.6ZM739.58,715l-2.74,4.29c-12,19-34.17,31.32-62.25,31.32H516.26L657.09,528.1a41.84,41.84,0,0,0,4.47-10.32l57.7,87.8C733.32,627.55,751.33,684.29,739.58,715ZM855.7,533.09,750.08,698.59c12.7-25.2-.24-77.24-16.29-102.27L513.45,250.41H674.39c25.41,0,50.38,14.5,61.17,31.24L855.7,470.45C867,488.1,866.5,516,855.7,533.09Z"/></svg>