<svg id="레이어_1" data-name="레이어 1" xmlns="http://www.w3.org/2000/svg" viewBox="0 0 1080 1080"><defs><style>.cls-1{fill:#b4b4b4;}</style></defs><path class="cls-1" d="M246,684.81h588.1V395.19H246ZM612,467.13q30.21-30.21,73.52-30.21,24,0,43.44,9.47t37.91,30.76l-21.33,20.44q-24.42-32.52-59.51-32.52-31.48,0-52.82,21.72-21.35,21.33-21.34,53.47,0,33.15,23.78,54.62,22.23,19.92,48.2,19.92,22.1,0,39.71-14.87T743.26,564H693.77V535.89h82v6.55q0,23.13-5.27,39.59a84.13,84.13,0,0,1-17.35,29.82q-27.63,31.1-70.3,31.1-41.64,0-71.33-30.08T582,540.39Q582,497.21,612,467.13Zm-102-26.35H540V639.22H510.05Zm-131.67,0h11.41l89.12,198.44H446.14L425.32,591h-85l-22.1,48.2H286Z"/><polygon class="cls-1" points="383.68 495.4 352.83 562.88 413.11 562.88 383.68 495.4"/><path class="cls-1" d="M1079.43,515.55C1065.91,217.67,813.54-13,515.53.57S-13,266.4.57,564.37s265.91,528.47,563.86,515.07S1093,813.44,1079.43,515.55ZM864,714.76H216V365.24H864Z"/></svg>