<svg id="레이어_1" data-name="레이어 1" xmlns="http://www.w3.org/2000/svg" viewBox="0 0 1080 1080"><defs><style>.cls-1{fill:#b4b4b4;}</style></defs><path class="cls-1" d="M1079.43,515.55C1065.91,217.67,813.54-13,515.53.57S-13,266.4.57,564.37s265.93,528.47,563.86,515.07S1093,813.44,1079.43,515.55ZM323.76,806.46c-26.39.54-35.87-12.61-37.56-35.12-2.4-30.65-5.55-295.36,1.17-326.16,3.52-16.18,17.36-21.32,33.56-21.32,18.86,0,41,6.89,54.39,11.62a191.53,191.53,0,0,1,67.09,39.94C556.09,580.4,507.84,803.53,323.76,806.46Zm267.73,57.48c-30.08.43-40.73-14.41-42.79-40.13-1.77-22.86-4-158.57-3.14-260.31h-.12c-24,.34-32.53-11.56-34.12-31.91-2.1-27.88-5-268.27,1.08-296.16C515.64,220.78,528.16,216,543,216c17.13,0,37.17,6.27,49.42,10.59a175.16,175.16,0,0,1,60.87,36.24c55.62,51.36,68.51,133.87,42.43,199.48a219.9,219.9,0,0,1,31.38,23.93C856.78,606.06,801.55,860.66,591.49,863.94Z"/></svg>