<svg id="레이어_1" data-name="레이어 1" xmlns="http://www.w3.org/2000/svg" viewBox="0 0 1080 1080"><defs><style>.cls-1{fill:#b4b4b4;}</style></defs><path class="cls-1" d="M1079.43,515.55C1065.91,217.67,813.54-13,515.53.57S-13,266.4.57,564.37s265.91,528.47,563.86,515.07S1093,813.44,1079.43,515.55Zm-546.83,349C357.75,864.55,216,722.8,216,548s141.75-316.6,316.6-316.6c3.52,0,6.92.41,10.41.52l237.42,219L689.6,541.67l-157-157L369.33,548,532.6,711.22,695.88,548H849.21C849.21,722.8,707.46,864.55,532.6,864.55ZM863.93,379.9l-61.72,61.72L534.77,201.52h130.5L864,379.93Z"/></svg>