<svg id="레이어_1" data-name="레이어 1" xmlns="http://www.w3.org/2000/svg" viewBox="0 0 1080 1080"><defs><style>.cls-1{fill:#b4b4b4;}</style></defs><path class="cls-1" d="M1079.43,515.55C1065.91,217.67,813.54-13,515.53.57S-13,266.4.57,564.37s265.91,528.47,563.86,515.07S1093,813.44,1079.43,515.55ZM538.84,331.83c50.82,12.71,107.41,32.92,152.45,52-15.59,4.62-33.49,9.24-49.08,14.44-78-34.07-135.12-47.35-152.45-52.55C506.51,340.49,530.76,334.14,538.84,331.83Zm-98.16,31.76c52.55,12.13,128.77,40.42,150.71,52.55-15,6.35-36.95,15.59-52.54,23.1-60.64-30.61-131.66-49.66-150.72-54.86C403.15,378,425.09,369.37,440.68,363.59ZM156,507.37c38.69-24.83,109.71-67.56,177.28-98.74,11.54,3.47,29.44,8.09,48.5,15-26.56,11.54-93.55,46.77-179,104.51C183.72,518.92,169.86,513.73,156,507.37Zm94.7,45c75.07-53.71,134.55-87.78,180.16-110.3,15,6.93,34.65,15,52.55,23.68-64.67,32.91-123,73.33-180.74,116.06C284.19,571.47,266.87,561.08,250.7,552.42Zm106.83,62.94c165.72-129.93,306-185.94,388-206.73,21.37,10.4,38.11,19.06,57.17,28.87C665.88,480.23,541.16,555.88,414.69,654,395.64,641.34,376,626.33,357.53,615.36ZM538.84,748.17c-20.78-17.32-43.3-34.07-64.67-50.24C600.05,598,741,509.68,861.64,469.84c25.4,14.44,47.92,27.72,62.36,37C830.45,543.18,660.11,644.23,538.84,748.17Z"/></svg>