<svg id="레이어_1" data-name="레이어 1" xmlns="http://www.w3.org/2000/svg" viewBox="0 0 1080 1080"><defs><style>.cls-1{fill:#b4b4b4;}</style></defs><path class="cls-1" d="M483.67,761.42c0,22,8.3,34.57,23.09,34.57s24.81-10.81,24.81-36.74V721.52a47.93,47.93,0,0,0-11.2-1.18C496.55,720.34,483.67,738.94,483.67,761.42Z"/><path class="cls-1" d="M738.46,761.42c0,22,8.32,34.57,23.15,34.57,14.67,0,24.82-10.81,24.82-36.74V721.52a49.17,49.17,0,0,0-11.26-1.18C751.4,720.34,738.46,738.94,738.46,761.42Z"/><path class="cls-1" d="M1079.43,515.55C1065.91,217.67,813.54-13,515.53.57S-13,266.4.57,564.37s265.91,528.47,563.86,515.07S1093,813.44,1079.43,515.55ZM642,400.43c2.51-7.3,7.79-14.79,20.34-16.17,12-1.31,24.07,3.12,30.09,10.73-4.26,8.76-15.17,15.64-27.11,16.92C652.81,413.27,646,407.1,642,400.43Zm23.11,35.31c-5.94,6.31-17,9.32-27.54,7.24-11-2.14-15.15-9.17-16.75-15.86,4-5.58,10.44-10.58,21.47-8.43C652.84,420.72,662,427.65,665.14,435.74Zm7.1-65.49c-14,6.29-24.07,1.7-31.11-4.44.06-9.36,3.3-20,17.2-26.27,13.3-6,28.86-5.5,38.72,1C695.42,352.19,685.51,364.25,672.24,370.25Zm-24.16-68.79c9.39-7.93,22.11-11.17,31.6-8.18,1.37,9.85-3.86,21.89-13.26,29.84-9.8,8.32-19.07,6.94-26.23,3.62C638.08,319.13,638.25,309.78,648.08,301.46Zm-8.72-42.67c5.3,11.49,3.31,28.12-5.23,41.23-8.94,13.78-20.74,15.51-30.69,14.07-5.34-8.51-8.58-20,.36-33.77C612.32,267.2,626.69,258.64,639.36,258.79Zm-25,110.79c-11,9.37-21.47,7.8-29.52,4.09-2.35-8.57-2.17-19.05,8.88-28.44,10.54-8.93,24.86-12.54,35.54-9.21C630.8,347.12,624.86,360.64,614.34,369.58ZM574.25,251.29c3.78-12.21,13.16-22.19,23.15-24.9,6.74,7.87,8.86,21.41,5.09,33.61-4,12.81-12.86,16.8-21,17.89C575.4,272.37,570.29,264.1,574.25,251.29ZM576,295.65c8.08,9.44,10.64,25.67,6.1,40.3-4.76,15.39-15.4,20.17-25.21,21.47-7.32-6.6-13.41-16.56-8.68-31.92C552.73,310.84,564,298.86,576,295.65ZM458.7,403.93c-4.39-5.41-7.68-8.92-7.68-12.1,0-1.3.91-2.46,3.07-2.46,10.7,0,80.29,30.73,80.29,141,0,52.71-17.72,96.66-28.23,96.66-4.62,0-6.36-4.6-6.36-13.48,0-19.53,6.88-36.79,6.88-78.46C506.67,454.67,473.54,422.2,458.7,403.93Zm-20.55,14.76c11-2.15,17.45,2.85,21.48,8.43-1.63,6.69-5.75,13.72-16.77,15.86-10.5,2.08-21.58-.93-27.55-7.24C418.47,427.65,427.64,420.72,438.15,418.69Zm-23.06-6.78c-11.93-1.28-22.83-8.16-27.11-16.92,6-7.61,18.18-12,30.13-10.73,12.53,1.38,17.83,8.87,20.3,16.17C434.42,407.1,427.64,413.27,415.09,411.91ZM451.25,336c10.65-3.33,25,.28,35.51,9.21,11,9.39,11.24,19.87,8.86,28.44-8,3.71-18.46,5.28-29.51-4.09C455.58,360.64,449.67,347.12,451.25,336Zm63.6,75.43c0-14.42,11.32-26.09,25.38-26.09s25.42,11.67,25.42,26.09-11.38,26.09-25.42,26.09S514.85,425.84,514.85,411.45ZM540.24,216c12.13,7.64,20.5,24.71,20.5,42.43,0,18.59-10.16,27.49-20.5,32.32-10.33-4.83-20.51-13.73-20.51-32.32C519.73,240.71,528.12,223.64,540.24,216Zm-8,109.5c4.74,15.36-1.36,25.32-8.72,31.92-9.72-1.3-20.4-6.08-25.16-21.47-4.53-14.63-2-30.86,6.11-40.3C516.44,298.86,527.69,310.84,532.24,325.5ZM483,226.39c10,2.71,19.39,12.69,23.19,24.9,4,12.81-1.18,21.08-7.26,26.6-8.14-1.09-17-5.08-21-17.89C474.16,247.8,476.33,234.26,483,226.39Zm-41.91,32.4c12.63-.15,27,8.41,35.58,21.53,8.9,13.76,5.68,25.26.33,33.77-10,1.44-21.78-.29-30.67-14.07C437.82,286.91,435.81,270.28,441.12,258.79Zm-40.33,34.49c9.47-3,22.22.25,31.59,8.18,9.81,8.32,10,17.67,7.9,25.28-7.19,3.32-16.42,4.7-26.24-3.62C404.66,315.17,399.41,303.13,400.79,293.28Zm21.35,46.26c13.9,6.29,17.12,16.91,17.21,26.27-7,6.14-17.15,10.73-31.1,4.44-13.27-6-23.22-18.06-24.84-29.74C393.23,334,408.83,333.53,422.14,339.54ZM323,575.26c36.14-22.2,91.15-45.33,170.87-52.64a101.08,101.08,0,0,1,.83,12.51,62.81,62.81,0,0,1-.55,6.82c-77.78,5-133.22,21.55-170.77,35a8.33,8.33,0,0,1-1.85.57.57.57,0,0,1-.64-.57C320.87,576.39,321.51,576.18,323,575.26Zm54.17,111.61c-4-1.93-15.06-5.72-30.54-5.72-31.25,0-54,22.53-54,56.16,0,33.87,22.88,56.11,54,56.11,11.38,0,23.19-2.3,30.54-5.72v24.21c-7.26,2.73-18.51,5.07-33.41,5.07-50.81,0-80.62-35.83-80.62-79.67,0-46.38,32.4-79.71,80.62-79.71,15.57,0,26.62,2.54,33.41,5Zm54.09,128.48H404.17V702.29h27.07ZM417.69,689.18a16.43,16.43,0,1,1,16.77-16.43A16.59,16.59,0,0,1,417.69,689.18Zm141,115.08c0,46.25-21.84,59.74-54.5,59.74a121.21,121.21,0,0,1-34.33-4.88V836.26a87.68,87.68,0,0,0,31.29,6.08c17.68,0,31.91-9,31.91-32.12v-8.43h-.48c-3,4.38-12.4,16.1-31.79,16.1-29.45,0-44.85-24-44.85-54.53,0-33.23,19.72-63.94,65.56-63.94a151.17,151.17,0,0,1,37.19,5.12ZM574.3,627.07c-10.46,0-28.23-44-28.23-96.66,0-110.31,69.61-141,80.34-141,2.12,0,3.05,1.16,3.05,2.46,0,3.18-3.32,6.69-7.68,12.1-14.87,18.27-48,50.74-48,131.2,0,41.67,6.86,58.93,6.86,78.46C580.67,622.47,578.93,627.07,574.3,627.07Zm11.48-91.94a95.66,95.66,0,0,1,.85-12.51c79.7,7.31,134.71,30.44,170.85,52.64,1.47.92,2.11,1.13,2.11,1.72a.58.58,0,0,1-.64.57,8.87,8.87,0,0,1-1.86-.57c-37.56-13.48-93-30-170.78-35A64.32,64.32,0,0,1,585.78,535.13ZM686.92,815.35h-27V747c0-14.43-8-25.29-21.79-25.29-14.19,0-21.77,11.5-21.77,25.29v68.34H589.26V737.14c0-10.5-1-30.62-1.23-35.19h24.29l1.16,15.92H614c2.83-4.47,11.93-18.45,33.13-18.45,25.61,0,39.82,18.79,39.82,42.24Zm105.68,0c-.32-3.33-1.29-15.3-1.56-18.81h-.71c-3.65,7.42-13.31,21.35-34.8,21.35-29.48,0-44.8-24-44.8-54.53,0-33.23,19.68-63.94,65.55-63.94a151.67,151.67,0,0,1,37.18,5.12V778c0,14.32,2.56,31,3.42,37.34Z"/></svg>