<svg id="레이어_1" data-name="레이어 1" xmlns="http://www.w3.org/2000/svg" viewBox="0 0 1080 1080"><defs><style>.cls-1{fill:#b4b4b4;}</style></defs><path class="cls-1" d="M540,0C241.77,0,0,241.77,0,540s241.77,540,540,540,540-241.77,540-540S838.23,0,540,0ZM329.7,395.73C354,341.56,416.38,314.37,484,314.37c68.69,0,116.47,23.71,112.69,32.14l-27,53.5s-5.1-46.48-74.22-46.48c-67.6,0-85.7,46.09-85.7,46.09s-22.81,35,32.09,72c66.27,44.71,90,96.29,68.09,145-19.57,43.61-81.41,73.44-81.41,73.44s13.69-12.55,20.17-27c15.66-34.56,8.6-76.49-64.26-123.34C337.72,509.76,300,461.94,329.7,395.73ZM829,614.76c-9.46,26.63-27.71,83.31-36.8,108.41s9.33,38.88,9.33,38.88-9,0-58-1.25-30.13-45.36-30.13-45.36S811,511.9,746.19,518.1c-71.88,6.89-133.51,116.72-146,139.36s-30.87,65.88-32,79.58,14.34,24.49,14.34,24.49h-55c-53.57,0-33.38-47-33.38-47-20.84,22.47-63.74,51-131.37,51-111.84,0-157.57-86.92-157.57-86.92l51.15-112.88S245.4,709.5,386.86,709.5c107.48,0,160.92-115.91,160.92-115.91l94.13-214.4c21.34-47.54-2.81-57.07-2.81-57.07h65.08c40.39,0,22.92,35.23,22.92,35.23L663.94,504.23s71.93-49.87,135.5-49.87C892.58,454.38,838.45,588.15,829,614.76Z"/></svg>