<svg id="레이어_1" data-name="레이어 1" xmlns="http://www.w3.org/2000/svg" viewBox="0 0 1080 1080"><defs><style>.cls-1{fill:#b4b4b4;}</style></defs><path class="cls-1" d="M1079.43,515.55C1065.91,217.67,813.54-13,515.53.57S-13,266.4.57,564.37s265.91,528.47,563.86,515.07S1093,813.44,1079.43,515.55ZM729,407.64c0,35.55-27.35,57.74-60.16,57.74-23.54,0-102.08-57.74-102.08-57.74s78.54-57.72,102.08-57.72C701.61,349.92,729,372.09,729,407.64ZM395.71,326l140.4-99.15.94-.64a60.16,60.16,0,0,1,83.47,16.43c18.52,27.48,10.09,65-17,84L486,408.85,689.3,544C745,580.14,752,645.63,715.87,701.27L398.13,490.63A99.8,99.8,0,0,1,395.71,326ZM401.76,864c-32.74,0-60.15-22.17-60.15-57.72s27.34-57.74,60.15-57.74c23.61,0,102.08,57.74,102.08,57.74S425.3,864,401.76,864Zm331.16-30a60.08,60.08,0,0,1-83,18L400.57,691.76a120.15,120.15,0,0,1-36.09-166h0L714.87,751A60.08,60.08,0,0,1,732.92,834Z"/></svg>