<svg id="레이어_1" data-name="레이어 1" xmlns="http://www.w3.org/2000/svg" viewBox="0 0 1080 1080"><defs><style>.cls-1{fill:#b4b4b4;}</style></defs><path class="cls-1" d="M387.79,459.82l36.6-93.38,23.66-12.28,29.3-62.22,63.92,10.35,130.11,72.62,146.45,40.54C780.09,319.3,673.36,237.24,544.08,237.24c-184.75,0-305.56,151.82-305.56,293.32,0,81.11,20,121.62,41.68,160.29,27.34-73.51,81.95-219.72,81.95-219.72S387.79,457.93,387.79,459.82Z"/><path class="cls-1" d="M540,0C241.77,0,0,241.77,0,540s241.77,540,540,540,540-241.77,540-540S838.23,0,540,0ZM216,530.56c0-152.81,131.23-314.08,328.08-314.08,189.82,0,290.64,150.92,307.54,229.17l-167-45.26L540.43,316.44l-53-9.42v38.67l40.86,37.76-56.61-4.72s1.67,2.77,49,52.77L735.6,467.36l37.72,24.52-98,4.73L634.76,644.68,501.85,733.34H415.11l29-57.54-4.51-1.89-78.28,59.43H342.44l80-112.25c3.93-32.09,1.95-17.92,6.74-75.48L416.8,528.67,384.69,653.18l-66.75,80.16H300.77l39.71-55.66L396.23,507l-14.35,6.59-24.5,67.89-16.9,9.45S300.77,687.1,280.2,734.22C250.06,690.85,216,632.4,216,530.56ZM696.15,670.08l28.16-23.52,40.58-114.13,43.35,17.92-30.11,70.73-27.34,23.6-54.64,88.65h-36ZM640.4,733.33H595.05L679,628.63l8.44,16Zm52.94-178.28,5.63-49,55.49,22.62L715,603.17l-21.69,3.75,5.63-43.4Zm-151,308.47c-80.25,0-178.26-28.32-248.95-115.11H790.22C732.77,822.89,633.93,863.52,542.39,863.52ZM803.46,733.33H730.79l69-108.5,20.83-70.67L864,569.22C860.07,623.92,842.31,679.53,803.46,733.33Z"/></svg>