<svg id="레이어_1" data-name="레이어 1" xmlns="http://www.w3.org/2000/svg" viewBox="0 0 1080 1080"><defs><style>.cls-1{fill:#b4b4b4;}</style></defs><path class="cls-1" d="M1079.43,515.55C1065.91,217.67,813.54-13,515.53.57S-13,266.4.57,564.37s265.93,528.47,563.86,515.07S1093,813.44,1079.43,515.55Zm-626-229a5.46,5.46,0,0,1,.7,0c9.16,0,59.12,11.66,112.13,48.81-15.32,4.32-42.92,20.18-42.82,53.05.13,29.12,21,45.15,21.06,74.35.28,47.52-54.19,59-65.62,59-3.88,0-5.83-2.59-6.48-7.08s-19.85-181.44-22.7-208.21c-.45-3.93-1.4-11.1-1.44-13.65A5.74,5.74,0,0,1,453.44,286.53ZM289,793.5c-43.18,0-69.34-16.65-73-18.7l20.26-38.15c2.75,1.73,24.43,15.88,49.25,15.88,18,0,31.58-7.45,31.58-20.54,0-14.78-18.3-22.12-38.6-32.06-13.91-6.8-28.81-14.75-39.22-26.87-8.08-9.48-13.31-21.43-13.31-37.95,0-32.79,26-64.37,75.25-64.37a153.22,153.22,0,0,1,57,11.34l-2.16,6.74c-5.36,16.48-13.59,25.12-28.08,25.12a48.6,48.6,0,0,1-8-.88,87,87,0,0,0-16.33-1.67c-16.61,0-25,7.65-25,18.21,0,13.74,14.71,20.57,32.75,29,26.11,12.66,58.36,27.37,58.36,67.95S335,793.5,289,793.5Zm227.75-4.38-67.81-92.19h-1v49.68c0,35.36-25.21,45.17-46.38,45.17h-2.89V575.19h49v88.22h1l66.49-88.22h59.46L491.14,677.42,579,789.12ZM621.32,555a125.11,125.11,0,0,0-13.86-20.28c2.6-7.67,36.72-102.37,41.19-115.21l-77.27,94.86a156.33,156.33,0,0,0-24.75-1.51c-7.19,0-13.74.36-19.72.9a58.31,58.31,0,0,0,28.34-50.71c0-32.94-20.69-48.17-20.69-73.29,0-27.69,25.42-43.31,42.7-46.57a321.16,321.16,0,0,1,71.42,76.25s0,0,0-.05A321.7,321.7,0,0,1,808.1,470.24c-18.28,10.26-47.65,25.72-92.6,25.92-11.75,0-18.23-.89-25.06-.89-30.69.13-35.49,17.39-36.37,40.33-.84,24.62-2.05,48.77-11.79,63.89A224.79,224.79,0,0,0,621.32,555Zm239.33-30c-2.2,1.31-8.9,4.27-12.44,6-24.34,11.23-185.83,86.4-189.93,88.28a10.85,10.85,0,0,1-4.43,1.21,5.26,5.26,0,0,1-4.75-3,35.23,35.23,0,0,1-2.4-5.36c14.09-17,16.27-42.42,17-60.85.23-5.74.3-11,.43-14.92.84-20.59,6.67-30.72,30.24-30.72,8-.06,10.69.71,22.53.71,48.18-.17,80.56-17.82,101.28-29.26,26.11,18,41.81,34.69,44.84,39.63a6.5,6.5,0,0,1,.93,3.18A6,6,0,0,1,860.65,525Z"/></svg>