<svg id="레이어_1" data-name="레이어 1" xmlns="http://www.w3.org/2000/svg" viewBox="0 0 1080 1080"><defs><style>.cls-1{fill:#b4b4b4;}</style></defs><path class="cls-1" d="M540,0C241.77,0,0,241.77,0,540s241.77,540,540,540,540-241.77,540-540S838.23,0,540,0Zm46.92,593.24H375V565.92a23.39,23.39,0,0,1,23.39-23.39H523.91a109.88,109.88,0,1,0-108.3,145.86c40.71,1.62,77.19-25.23,97.48-56.83l40.41,47.18A166.62,166.62,0,1,1,586.92,578.6ZM717.49,553A109.19,109.19,0,1,1,826.68,443.79,109.18,109.18,0,0,1,717.49,553Z"/><path class="cls-1" d="M717.49,392.06a51.71,51.71,0,0,0,0,103.42h0a51.69,51.69,0,0,0,51.69-51.69v0A51.71,51.71,0,0,0,717.49,392.06Z"/></svg>