<svg id="레이어_1" data-name="레이어 1" xmlns="http://www.w3.org/2000/svg" viewBox="0 0 1080 1080"><defs><style>.cls-1{fill:#b4b4b4;}</style></defs><path class="cls-1" d="M1079.43,515.55C1065.91,217.67,813.54-13,515.53.57S-13,266.4.57,564.37s265.91,528.47,563.86,515.07S1093,813.44,1079.43,515.55ZM329.79,623c-11.48,0-22.91-3.33-20.78-5.46h-.26l96.33-96.33a14.31,14.31,0,0,1,20.24,20.24L349.23,617.5C347.1,619.63,341.27,623,329.79,623Zm69.33,0c-11.48,0-22.92-3.33-20.79-5.46L439.87,556a34.89,34.89,0,1,0-49.34-49.34L279.65,617.5h.26c-2.13,2.13-9.3,5.46-20.78,5.46s-22.92-3.33-20.79-5.46h-.25L369.75,485.84a64.28,64.28,0,1,1,90.91,90.9L419.9,617.5C417.77,619.63,410.59,623,399.12,623ZM496,612.08l-5.42,5.42h0c-2.14,2.13-9.31,5.46-20.79,5.46s-22.91-3.33-20.78-5.46l26.2-26.21a84.85,84.85,0,1,0-120-120L209,617.5c-2.13,2.13-9.31,5.46-20.79,5.46s-22.91-3.33-20.78-5.46l167-167A114.25,114.25,0,1,1,496,612.08ZM750.21,623c-11.48,0-17.31-3.33-19.44-5.46l-76.09-76.09a14.31,14.31,0,0,1,20.24-20.24l96.33,96.33H771C773.12,619.63,761.69,623,750.21,623Zm70.66,0c-11.48,0-18.65-3.33-20.78-5.46h.26L689.47,506.62A34.89,34.89,0,1,0,640.13,556l61.54,61.54c2.13,2.13-9.31,5.46-20.79,5.46s-18.65-3.33-20.78-5.46l-40.76-40.76a64.28,64.28,0,0,1,90.91-90.9L841.91,617.5h-.25C843.79,619.63,832.35,623,820.87,623Zm70.93,0c-11.48,0-18.66-3.33-20.79-5.46L724.8,471.29a84.85,84.85,0,0,0-120,120L631,617.5c2.13,2.13-9.3,5.46-20.78,5.46s-18.65-3.33-20.79-5.46h0L584,612.08A114.25,114.25,0,0,1,745.58,450.5l167,167C914.71,619.63,903.27,623,891.8,623Z"/></svg>