<svg id="레이어_1" data-name="레이어 1" xmlns="http://www.w3.org/2000/svg" viewBox="0 0 1080 1080"><defs><style>.cls-1{fill:#b4b4b4;}</style></defs><polygon class="cls-1" points="589.68 631.97 589.83 631.97 589.68 631.84 589.68 631.97"/><path class="cls-1" d="M540,0C241.77,0,0,241.77,0,540s241.77,540,540,540,540-241.77,540-540S838.23,0,540,0ZM863.83,701.07v1.47h-.24v1.06h-.24v1h-.24v.84h-.23v.84h-.22V707h-.24l-.21,1.45H862v-1.86h-.22v.63h-.23v.41h-.22v.63h-.22l-.45,1.18h-.24v.44h-.23v.43h-.22v.45h-.24l-.43,1.19H859l-.21.58-.46.11-.21.82-.46.11V714l-.69.3v.43l-.67.31v.41l-.88.47v.46l-2.16,1.27-1.82,1.55H851l-.65.72h-.48l-.43.54H849l-.48.52h-.45l-.2.36h-.71v.24h-.91L846,722l-1.39.17-.21.37-2,.26V723h-.91v.2l-.69-.11v.19h-.45v.22l-.7-.13v.21l-.71-.12v.21l-.69-.13v.22l-.67-.13v.19l-.93-.15v.22l-.88-.2v.22l-1.17-.22v.22s-6.8-.87-9.57-1.56-9.72-3.28-9.72-3.28l-1-.35-.32-.1v-.22l-1.17-.43v-.2l-.9-.38v-.22l-.69-.13v-.22l-.93-.36v-.22l-.93-.39-.24-.47-1.36-.67v-.22L801,710.25v-.19l-.91-.18v-.21l-.69-.13v-.22l-.69-.13V709l-.69-.35-10.63-7.26h-.45l-.95-1.23h-.43l-6.48-5V695l-.91-.39v-.22l-.71-.13V694l-1.36-.69v-.22h-.48v-.21l-.9-.39-.24-.48-1.36-.67-.26-.45h-.48v-.24l-.69-.32-.24-.48H771l-.47-.71h-.46l-.23-.48-.48-.1-.93-1.19H768l-7.63-6.27v-.23l-1.38-.67V680h-.45v-.21h-.46v-.22l-1.4-.67-.24-.45-.93-.41-.21-.46-.93-.39-.46-.73h-.47l-.24-.48h-.45l-.48-.73s-7.88-6.2-10.8-9-12.4-11.24-13.45-12.4l-.93-.8v-.41l-1.17-1.06-.24-.67-.43-.74-8.34-7.45-.49-.11-.91-1.2H715l-2.16-2.53-1.36-1.3v-.41l-.92-.8V636h-.2l-.5-.71h-.43l-.24-.48-1.16-.41v-.21l-.93-.37v-.22l-.89-.39-.28-.45-1.36-.67v-.22l-.67-.34-.26-.48-.9-.36-.24-.48h-.46l-.23-.47-.72-.33-.45-.71-.45-.11-.24-.45h-.45l-.93-1.21h-.46l-1.85-2.16h-.46v-.22l-.69-.56v-.41l-1.88-1.84v-.38l-.43-.31-.76-1h-.43l-.11-.26-.77.77-.7.29v.43l-.69.28V622L685,624.76v.41l-.9.26v.19h-.46l-.21.37h-.24l-.24.39-.45-.11-.46.56h-.45l-.21.39h-.7v.24l-.45-.11-.22.39h-.69V628h-.9l-.24.73h-.91l-1.79,1.14v.41h-.71v.44l-.91.45v.43l-1.12.63v.43l-.93.26v-.71h-.22l-.88.86h-.48v.41l-.45.15v.22h-.46l-.9.86H668l-.93.89h-.67l-.24.37h-.45l-.19.38H665l-.22.39-.45-.1-.22.73h-.45l-.24.35-.88.45-.69,1-.67.28v.43l-.44.13v.43l-.47.15V641l-.48.13v.22h-.45v.41l-1.14.64v.44l-1.56,1-.24.58-.69.3v.22h-.45l-1.58,1.36h-.45l-.91.89-.45-.11-.72.73h-.45l-.24.39h-.69v.22h-.43l-.22.36h-.49l-.2.39L648,649l-.2.38h-.47l-.39.24h-.17l-.44.33h-.45v.19h-.45v.22h-.48l-.21.38-1.39.16-.21.38h-.46l-.21.37-1.17.67-.19.13v.43l-1.15.65-1.36,1V655l-.67.1-1.6,1.39h-.47l-.69.71h-.44l-.69.73-.47-.11-.43.57h-.46l-.23.34-.67.11v-.43h-.48l-.19.37h-.69V659l-1.39.15-.24.39h-.9v.22h-.46v.21h-.47v.2l-1.36.19v.2l-.69-.13v.21l-.11.54h-.46l-1.12,1.06-1.06-.13v.43l-1.34.8L618.62,665l-.47-.11-1.77,1.15-2.75,1.27h-.71v.22h-.43l-.24.39h-.93l-.23.39h-.44l-.45.32h-.48v.2h-.45v.19h-.47v.22l-.46-.11v.24h-.43v.19h-.5v-.5l-1.36.15v.22l-.71-.13v.22h-.43v.21l-.71-.13v.2l-.65.21v.22l-.72-.11v.2l-.69-.13v.19L599,671.74l-.91.88h-.47l-.89.91h-.48l-.45.54h-.43l-.45.52h-.46l-.24.37h-.92l-.22.39h-.71v.19h-.93l-.2.37-1.36.17v.19h-.43v.22l-.47-.11v.22h-.48v.21l-1.38.18v.19l-.67-.13v.22H586v.21l-.69-.13v.22h-.47v.24l-.69-.15v.21l-.69-.13v.2l-4.32,1.75h-.46l-.9.88-.46-.11-.45.59-.45-.11-.46.56h-.47l-.22.39h-.45l-.48.56h-.88l-.24.39h-.91l-.22.39-1.38.17-.21.37-.7-.13-.21.39L562,685.37l-.91-.15v.21l-.91-.17v.19l-.9-.17v.22l-.93-.15v.19l-1.15-.22v.22l-1.16-.22v.22l-1.82-.32v.19l-8.49-1.36v-.22l-2.76-.49v-.22l-1.84-.34v-.2l-1.34-.26v-.21l-.92-.2v-.19l-1.17-.22v-.21l-2.53-.89v-.93l-.69-.13v-.21l-1.6-.5v-.22l-.47-.11v-.21l-.69-.11v-.22h-.46v-.23l-.67-.11v-.22l-.9-.41v-.19l-.65-.11v-.22l-1.41-.69v-.21h-.43v-.22l-.91-.37-.23-.45-1.41-.69-.21-.45-.93-.39v-.22l-.69-.34-.22-.46h-.5l-.21-.45-.48-.11-.45-.71h-.45l-.48-.72h-.43l-.48-.73-.71-.32-2-2.51h-.48l-1.64-2.16h-.45l-1.15-1.49v-.43l-.45-.28v-.22l-.48-.3v-.41l-.69-.56v-.44l-.69-.54V659l-.45-.28-.24-.69h-.24v-.41l-.45-.3-.24-.67h-.24l-.23-.89-.46-.32V655l-.43-.52v-.58h-.24v-.41h-.23v-.44h-.22l-.5-1.36h-.23l-.22-1.1h-.24v-.43h-.24v-.67H505l-.24-.89h-.24l-.47-2.16h-.24v-.62h-.24v-.63h-.22l-.28-1.53h-.21v-.84h-.24l-.26-2.57.5-17.82h.21v-.65h.22v-.63h.06l.65-2.61h.24v-.41h.22v-.65h.21l.22-.8h.21v-.63h.26l.22-.84h.22v-.65l.45-.13V614l.45-.32v-.45h.24v-.41h.24v-.44l.45-.1.24-.83.45-.1v-.44l.46-.13L509,610l.46-.13v-.44l.67-.3v-.43l.67-.28V608l1.14-.63V607l.86,0v-.41l.46-.35h.67v-.41l.45-.13.48-.54,1.1-.43v-.43l.45-.32h.48l.69-.74H518l.89-.88h.47l.43-.54h.48l.45-.57h.48l.21-.36h.91l.22-.37h.69v-.22h.93l.21-.36.46.1.45-.36h.45v-.22l.48.11v-.22h.45l.2-.39.71.11v-.19h.91v-.22l.69.13v-.19h.88v-.22l.69.13v-.22l.46.11v-.21h3v-.22l.71.11v-.22l.67.13v-.19h2.74l.24-.37H539l.43-.56.45.11.45-.57h.48l.45-.56.46.11.23-.39h.91l.24-.36h.43l.24-.37h.45l.22-.39h.45l.45-.35h.48v-.19h.48v-.22h.45l3.33-.82h.13l-2.75-3.37-.69-.54-.24-.67-.93-.84V587l-.71-.54V586l-.69-.54V585l-.45-.28v-.44l-.48-.3-.21-.88-.48-.29-.26-.9h-.24l-.21-.89h-.24v-.41h-.24l-.36-.5h-.22l-2.16-2.89-1.69-2V575l-1-.77v-.44l-2.31-2.31v-.43l-.56-.73v-.44l-.47-.3v-.41l-.48-.3v-.43l-.47-.28v-.41l-.46-.31V567l-.47-.3v-.41h-.22l-.24-.89-.45-.3-.26-.88h-.22l-.86-1.45h-.22v-.65h-.23l-.22-.91h-.24l-4.45-6.11v-.56L522,553.5v-.43l-.69-.54v-.43l-.67-.54v-.41l-.46-.31v-.43l-.47-.28-.22-.69h-.23l-.48-1.36-.48-.28-4.66-8.25-.24-.69L511.57,537v-.41l-.92-.82v-.41l-.93-.8v-.43l-.43-.3-.26-.67h-.22v-.46l-.48-.3v-.39l-.45-.3v-.43l-.47-.31v-.43l-1.15-1.68v-.13h-.15l-.1-.26-.14.78h-.24v.41h-.21v.62h-.26V531h-.22v.43h-.23V532h-.26l-.2.8H504v.65h-.21l-.43,1.18h-.26v.41h-.22v.63l-.45.13v.41h-.24v.65l-.45.13v.41h-.22v.43l-.45.35v.41l-.46.13-.45,1.18-.45.13v.41l-.69.31-.22.8-.67.3v.41l-.45.13-.24.6h-.24v.43l-.69.31v.43l-1.12,1-2.6,3.52-.34.58h-.22v.63H492v.86h-.22V551h-.24l-.34.56H491v.65h-.22v.61h-.23v.41h-.22v.64h-.22v.41h-.23l-.59,1.17h-.21l-.24.8h-.22v.43h-.21v.65h-.24l0,0v.26h-.24l-.45,1.19-.43.1-.46,1.21-.45.13-.43,1.17-.48.13v.43l-.45.11v.41l-.46.15V563h-.23l-.22.58-.47.13v.41l-.67.31v.43l-.44.11v.45l-.47.11.37.28-.46.13v.41l-.91,1.49v.41l-1.62,1v.43l-.9.46-4.73,6.07h-.24l-.22.8h-.21v.43h-.24V578h-.22l-.45,1.16h-.24v.39h-.21V580h-.26v.43H471v.41l-.45.33v.43l-.46.13v.65h-.23l-.22.6-.47.11-.22.82-.45.13v.41h-.24v.43l-.48.13v.43l-.67.29-.21.82-.69.28v.41l-.7.3v.06l-.43.13v.41l-.9.48V589l-1.15.65v.43l-3.45,4.19h-.24v.84h-.22v.44h-.21l-.85,1.74h-.21l-.22,1h-.24v.39h-.21v.63H457l-.45,1.14h-.24v.32H456v.44h-.21v.62l-.46.13v.65l-.43.11v.41h-.24v.43h-.24V604h-.23v.43l-.44.35v.35l-.47.13-.22.79-.45.13-.22.8-.69.31-.21.79-.7.29-.21.6-.45.13-.22.8-.69.3v.41l-1.12.65v.19l-1.15.63v.41l-3.82,4.32-.22.56h-.21v.87h-.24l-.22.8h-.21l-.24,1.21h-.22l-.23,1h-.22l-.24.8h-.21v.32h-.24v.65h-.22l-.43,1.19h-.24v.43h-.21l-.44,1.17-.45.13v.43l-.26,0v.43H438v.43h-.21v.43l-.45.13-.22.78-.45.15v.39l-.48.15v.41l-.45.13v.41l-.46.15v.41l-.45.13v.41l-.67.31V632l-.48.13v.43l-.9.45v.41l-1.15.63v.43l-.9.46v.21l-.46.15-3.93,4.95-.22.37-.43,1.21h-.23l-.2.79H425v.63h-.26v.39h-.21v.6h-.24l-.8,1.13h-.24v.43h-.19v.43l-.45.13v.41l-.46.35v.43H422V648h-.22v.41l-.45.35v.41l-.46.13-.23.8-.44.15v.41l-.45.13v.41l-.45.13-.22.8-.69.28-.22.8-.67.32-1.14,1.27v.41l-.45-.1-.46.77h-.24v.44l-.45.1v.22l-.43.13v.41l-2.51,1.66v.39l-.47.13-1.13,1.06h-.45l-.24.35-7.23,6.67H402v.13h-.22V668l-.47.35v.41l-.45.13-.22.79-.48.13-.21.8-.69.28-.18.82-.71.31-.19.8-.72.28v.43l-.67.3v.41l-.95.48-.21.6h-.24v.43l-.43-.1L390.44,680H390l-.22.36-1.83.93v.43h-.24l-.91.46v.24h-.45v.41l-.93.26v.19H385l-.22.37h-.24l-.21.36-4.54,4.45-.45.13-.22.8h-.45v.43l-.48.13v.44l-.47.13v.41l-.44.13v.41l-.47.15V692l-.67.3v.41l-.43.13v.41l-.46.13v.26l-.45.13v.41l-.91.47v.44l-1.57.95v.43l-1.62,1-.22.58H370l-.22.59-.69.11-2,1.27-5.92,5.87-.9,1.11v.43l-.46.11-.19.82-.48.13v.41l-.47.13-.44.56V710l-.45.13h-.84v.43l-.46.13v.26l-.69.3-1.12,1.28v.43l-.45-.11-.22.6-.69.29v.45l-1.15.63L347.83,718v.43l-.44.33h-.45l-.48.54-2.29,1v.43l-.69.11-1.36.56-.43.56-.48-.11-.69.32-.21.37-.11.33-.19.38-1.62.35v.22h-.91V724H337l-.21.37h-.48v.22l-.45-.11-.45.15-13.87,9h-.45l-.7.71H320v-.35l-.69.31-.24.39h-.45l-.22.36h-.45l-.47.54H317l-.45.59h-.93l-.41.54h-.48l-.21.36h-.93l-.22.37h-.9l-.24.37h-.48l-.43.34-.47-.1v.23h-.44l-.23.39h-.93V739l-.48-.11v.2l-1.36.19v.22l-.71-.13v.19h-.43v.22l-1.39.15v.21H303.5v.22l-.43-.11v.24h-2.16v.22h-.45v.19l-.91-.15v.21l-.69-.12V741l-.69-.13V741l-.7-.13v-.41l-.9-.19-3.89.36-2.29-.21v.21l-13.76-1.94v-.22l-4.84-1.1L262.61,734v-.19l-3-1.19v-.22h-.45v-.21l-.69-.11v-.24l-1.39-.45v-.22h-.47V731l-.69-.16v-.19l-.91-.39V730h-.47v-.22l-.67-.11v-.21l-.93-.39v-.22h-.48v-.22l-.69-.13-.24-.47h-.45v-.22h-.45v-.21h-.46v-.24h-.47l-.48-.5-.45-.1-.24-.46-1.38-.67-.24-.47-.91-.37-.45-.73h-.48l-.25-.48h-.44v-.8l-.67-.34-.23-.48H243l-.45-.73h-.48l-.21-.46-.48-.11L241,720h-.5l-.92-1.23h-.44l-1.21-1.49h-.43l-3-3.52-1.86-1.81v-.44L231,709.91v-.41l-.93-.8v-.41l-.93-.85v-.38l-.47-.33v-.39l-.69-.56v-.43l-.46-.3-.23-.67H227v-.44l-.46-.3v-.41l-.47-.3v-.41l-.45-.3-.5-1.36-.48-.29-.45-1.36-.48-.3-.21-.86h-.26v-.41H223v-.43h-.21v-.44h-.24v-.41h-.22v-.6l-.45-.28v-.65h-.24l-.22-.86h-.21v-.63H221l-.24-.91h-.23l-.26-1.29h-.22v-.44h-.24v-.84h-.21v-.41h-.22v-.84h-.24V688h-.21v-.65h-.24l-.24-1.53h-.24l-.23-2h-.22V683h-.24v-.84h-.26v-1.25H217l-.24-3h-.24l-.56-8.13h.24l.36-7.73h.22v-1.27H217v-1.28h.23l.2-1.85h.21V656.6h.22v-.85h.26l.19-1.44h.22v-.63h.26V653H219v-.84h.24v-.39h.24l.43-1.83h.24l.24-.8h.21l.22-1.23h.24l.45-1.19h.22v-.43H222l.22-1,.45-.15.22-1,.47-.13v-.41l.46-.35v-.43H224v-.46h.22v-.45h.45l.46-1.21h.23l.2-.58L226,640v-.41l.46-.13V639l.69-.31.21-.8.67-.28v-.43l.69-.3v-.43l1.15-.61v-.43l1.14-.65v-.41l.89-.47v-.44l1.38-.56v-.43l1.6-1,.22-.39.45.11.47-.35v-.43l2.29-1.06V629l1.8-.69.23-.37h.46l.45-.56h.46l.45-.56h.47l.22-.39h.67v.48H244l.22-.37h.47l.22-.39h.45l5.92-4,3.37-3.56h.26l1.6-1.6h.22v-.43l.88-.67h.71l1.58-1.38,6.48-4.69v-.43l.43-.54.46-.33V608h.21v-.39l.46-.13v-.41l.45-.34v-.44l.45-.1v-.44l.46-.13v-.41l.43-.56.5-.13,1.1-1.25,1.36-1.45v-.43h.45l1.19-.63h.24v-.43l.88-.45v-.22h.48v-.45l1.34-.78,2.68-2.87h.45l1.36-1.23h.45l.46-1.23h.45l.91-.89h.45l.24-.39.45.11.48-.56,1.94-1.34.39-.3.26-.2,1.84-1.94.21-.82h.22l.21-.59.48-.15v-.41l.43-.13v-.43l.93-.45.22-.82.43-.13.26-.59,1.12-.62v-.41l1.15-.63V581l2.16-1.49.21-.59,8.64-8.92.48-.15.45-1.16.43-.13.46-1.19h.23l.22-.61.43-.1.24-.8.69-.28.22-.8.69-.31v-.43l.69-.3v-.3l.47-.13v-.41l1.15-.63v-.45l1.14-.63v-.39l9.81-14,.32-.43.46-.13.21-.82.48-.11.19-.8.48-.13V544l.47-.13v-.45h.48V543l.45-.11v-.43l.67-.3v-.6l.69-.31v-.43l1.15-.63v-.41l1.14-.62v-.43l.91-.48v-.09h0v0h.47l4.73-5,.44-1h.21l.24-.8H339v-.43h.24v-.67h.21l.46-1.19h.21v-.43h.24v-.41h.24v-.46h.23v-.45H341v-.43l.45-.33v-.43l.46-.11.21-.84h.46l.23-.8.44-.13v-.43h.26v-.43l.43-.13v-.43l.45-.11v.15l.46-.15v-.41l.47-.13v-.43l.67-.28v-.41l.69-.33v-.41l1.12-.65v-.41l.48-.13v-.19l.45-.13v-.43l5.64-7h.22l.6-.73h.24V510h.24v-.41h.23V509h.26l.44-1.18h.21v-.41h.24V507h.22v-.44h.21v-.43h.24v-.41H358v-.43h.23v-.43l.48-.33v-.41l.43-.13.24-.82h.45l.22-.82.45-.13v-.41h.24v-.43l.65-.3.21-.8.69-.28v-.44l.69-.28,1.13-1.27v-.43h.45l.45-.78h.22v.41h.24l.67-.73.45-.11v-.46h.24l.67-.73h.45l6-6.48v-.43h.23l.24-.82h.22V487h.23v-.44h.26v-.43h.22v-.43h.22v-.43h.23v-.43H376v-.39h.24v-.41l.47-.35v-.41h.48l.19-.82.69-.28.22-.8.45-.13v-.43H379v-.39l.48-.15.21-.59.67-.28V479l.69-.3.24-.8,1.12-.65v-.41l1.13-.62v-.42L386.9,472h.22v-.45h.19l.24-1.43h.21v-.43H388l.2-1.23h.24V468h.23v-.63h.22l.22-.82h.21v.06h.26l.43-1.2h.24V465h.24v-.45h.21v-.41H391v-.41h0v-.41h.26v-.41h.24v-.43l.47-.35v-.43l.48-.11.43-1.19h.48V460l.67-.3.21-.8.48-.13v-.43l.67-.3v-.41h.23l.22-.61.47-.11v-.43l.91-.47v-.41l1.13-.63v-.41l1.38-.82v-.41l2.68-4.17h.23v-.43h.24l.43-1.82h.22v-.43h.24v-.63H404l.24-.8h.24v-.64h.21l.44-1.17h.23v-.41h.22v.28h.24v-.41H406v-.41h.24v-.45h.26v-.44h.24v-.43l.45-.34v-.41l.46-.13.19-.8.45-.13.24-.8.46-.13v-.41l.45-.13v-.41l.43-.15v-.41l.48-.13v-.43h.45l-.15-.67.69-.28v-.44l.89-.45.23-.61,2-2.78v-1.06h.22v-.63h.24v-.62h.21v-.85h.22v-.6h.6v-.65h.24v-.62h.26v-.44h.24l.21-1.23h.24v-.41h.24v-.65h.21l.24-.82h.24v-.43h.24v-.65h.23l.48-1.16h-.24v-.41H419v-.41h.24l.45-1.19.45-.13v-.63l.46-.13.21-.8.44-.1v-.46h.45v-.43l.45-.13v-.41l.48-.13v-.3l.45-.13v-.43h.24l.22-.59.47-.13v-.43l.65-.3V412l1.14-.65V411l3.39-4.88v0h.24v-.64h.22v-.89h.24v-.43h.25v-.63h.22v-.43h.24v-.63h.21V402h.22v-.65h.22l.23-.8h.2v-.43H432v-.62l.41-.13v-.65h.24v-.43h.23v-.44l.5-.13v-.41l.45-.34v-.41h.24v-.43h.22v-.44l.45-.13.22-.82h.45v-.43l.45-.13v-.41l.48-.13v-.43l.45-.11v-.43l.46-.13v-.43l.65-.28v-.41l.69-.33v-.41l2.93-4.08h.22v-.22H442v-.62h.21v-.63h.22v-.86h.26v-.41h.19l.46-1.82h.23v-.43h.24V381H444l.21-.8h.22l.24-1h.23l.41-1.19h.26v-.26h.24v-.43H446v-.41h.24v-.43l.45-.33v-.43l.48-.11.21-.82.46-.11.21-.82.45-.13.22-.8.69-.3v-.41l.48-.13v-.43l.45-.11.22-.58.69-.33v-.41l.47-.13v-.19l.46-.13v-.43l.9-.46v-.43l6.1-8.16v-.41h.21v-.41l.46-.15v-.41l.43-.35v-.26h.26v-.41l.43-.13.21-.82h.24l.2-.58.49-.13.2-.8.69-.3v-.44l.45-.1v-.44l.69-.28v-.41l.89-.47v-.46l.91-.45v.56l2-1.32v-.43h.45l.46-.56.45.11,1.81-1.58h.46l.69-.71h.45l.91-.89.43.11.45-.56h.48l.24-.37H476v-.21h.43l.24-.39h.45l.24-.39h.69v-.22l1.36-.17.2-.35h.47l.46-.34H481v-.24h.45v-.21h.46l.23-.39.67.13v-.2h.93v-.19l.67.13v-.22h1V343l.69.13v-.21h.43v-.22l.72.13v-.21h.43v-.22l3.91-.76.45.11.24-.39h.91l.21-.39h.93v-.17h.46v-.21l1.36-.16v-.19h.69V340h.91v-.21l.67.15v-.24h.45v-.24h1.38v-.21l.65.13v-.22l.71.13v-.21l.67.12V339l.93.19v-.21l.91.17v-.22l1.14.22v-.2l18.15,4.19v.22l.69.13v.22l.67.13V344l.67.11v.22l.69.13v.21h.45v.2l.71.13v.23l.91.37v.11l.69.13v.21l1.38.67v.2l.93.39.22.45.95.95.24.48H533l.22.45h.47l.22.45h.48l.23.48h.44l.23.45h.46l.71,1h.45l.93,1.23h.46v.22l.45.3v.44l3.74,4.32.66.56v.43l.7.54v.43l.45.26.3.78h.24v.41l.47.3.24.67h.24v.8l.45.52v.41h.24V365h.26v.43H547v.43h.21v.43h.24l.48,1.37h.24v.62h.21v.43h.26v.63h.52v.76h.26v.64h.21v.63h.22l.28,1.53h.22l2.37,7.2h.22l.24.86h.23l.24,1.34h.26v.28h.22l.73,2.9h.22v.64h.23v.63h.22v.84h.22l.47,3.26v17.52l-.43,2.87h-.22v.67h-.23v.63l-1.93,11.06h-.21v2.55h-.26v1.9h-.24v1.23h-.22v1.25h-.25v1.06H552v.84h-.24l-2.42,7.78h-.24l-.21.8h-.24v.63h-.24l-.23.82H548v.45h-.26v.63l-.45.13v.43l-.46.32-2.46,5.44-.22.57h.22V451h.24v.43h.24v.41H545v.43h.26v.44h.24v.43h.24v.43h.21v1.1h.24l.45,1.34h.22l4.32,7.32v.44l.93.79V465l.69.51V466l.69.56V467l.5.3v.41l.45.31.24.67h.24v.43l.45.52V470h.24v.43l.47.28.22.91h.24L557,473h.22v.62h.24l.21.89h.24l4,5.57v.43l1.17,1.06V482l.93.8v.41l.69.54v.43l.45.31v.43l.69.54v.43l.46.3.26.89.43.3.5,1.34.45.28.26.91h.21l.24.88h.24v.63h.26l.21.86h.22l.26,1.11h.24l4,5.59v.58l1.14,1V501l.7.54V502l.69.54V503l.45.28.26.69h.22v.43l.47.28.24.91.45.28.48,1.34h.23v.43h.24V508h.24v.43h.24l.45,1.36h.24v1.66H581v.44h.19v.62h.24v.43h.21v.63h.22v.63h.24v.62h.24l1.36,2.16,1.18,1.71h.22l.24.67.71.56v.41l.48.3V521l.66.57V522l.46.32.26.67h.24l.25.88.44.31v.41l.47.49v.44h.24v.43h.19v.39l.48.32v.63h.24v.41h.19l.26.88h.24v.63h.24v.39h.23l.24,1.1h.26v.65h.19l2.81,4.94.91.8v.44l.69.56v.41l.45.28v.43l1.62,2.64.48.3v.41l.45.52v.41h.22v.43h.24v.41h.21v1.9h.24l.47,1.34h.24l4,5.59.45.74H606v.43l.91.8v.43l.71.54v.43l.71.57v.41l.45.3v.41l.46.3.26.67h.19l.26.89.45.3.24.88,1.17,2.34h.47l1.13-.35.23-.37h.46l.24-.36h.45l.24-.39h.43l.24-.37h.47l.2-.39h.93l.19-.36,1.4-.2v-.19h.46v-.22l1.38-.17V560l.69.15v-.21h.45v-.2h.46l.24-.39.45.11.45-.37v-.41l.48-.13.67-.71,13.67-6.33.43-.34h.5l.67-.72.45-.13v-.41l7.54-4.51.91-.48v-.21h.45l.24-.39h.69v-.24h1l24.54-13.8h.48l.69-.71h.43l.45-.54h.48l.43-.56.5.1.19-.39H680V528h.48l.21-.37h.93l.22-.39h.91V527h.47v-.2l1.38-.19v-.2l.7.13v-.21h.9v-.2h.69v-.21l.46.1v-.21h1.36v-.22h.47v-.21l.93.15v-.2l.91.15v-.19l.69.13v-.19l1.14.19v-.19l1.17.19v-.19l10.11,1.44v.2l3.67.88v.2l1.15.23v.22l1.14.22v.19l.93.17v.22l.67.13v.22l1.62.49v.22h.43v.21l.72.11v.22h.45V531l.67.13v.22h.5v1.58l1.12.43v.21l1.4.67v.22h.46v.22l1.36.67v.21l.71.35.19.45.93.39.5.71h.45l.22.48h.5l.43.71,3.24,3.13h.45v.41h.48l.21.69,1.64,1.56v.43l1,.82v.39l.91.82v.41l.48.33.23.64h.22v.41l.48.31.23.88.46.28v.44l.47.51v.41l.46.33v.41l.28.34.62.52h.24v.5h.45l.24.47h.46l.45.72h.47l.24.45h.46l.92,1.23h.46l1.86,2.16,1.4,1.1.69,1.19H745l.24.67,1.17,1.06v.43l1.14,1.06v.41l.48.3v.44l.69.51v.46l.47.28V567l.46.28.24.69h.21l14.17,15.71.46.28v.43l.43.3.28.67h.21L769,590.5h.46l.47.71.45.11.72,1h.45l.69,1h.46l1.4,1.73,3,3.08,1,1.21,4,4.13.22.45.93.39.21.48.93.34.26.48,9,8.85H794l.72,1.19h.21v.43l.48.28v.22l.47.3v.43l.46.29V618l.67.52,3.73,3.86h.43l.24.48h.48l.45.71h.45l.46.71.47.11.69,1h.48l1.84,2.16.45.11v.17l.69.59v.41L810,631l3,2.87v.22h.46v.23l.45.28.91.39,1.16.87.24.45.72.54h.45l.69.54.22.48.71.56h.43l.45.52.26.47,3.72,3.65,5.31,5.4.48.5h.45l.24.47,11.79,10.8v.22l.72.54,7,7.6h.43l.93,1.26h.46l.23.47,1.41,1.32.9,1,1.17,1.47,1,1.23.69,1,.48.71.69,1.4.89,1.23.49.93.24.46.71,1.4v.63h.22l.26.88h.19v.65h.24V685h.24v.63h.21v.62h.22v.63h.22l1.44,6.48v2.53H864l0,5.18Z"/></svg>