<svg id="레이어_1" data-name="레이어 1" xmlns="http://www.w3.org/2000/svg" viewBox="0 0 1080 1080"><defs><style>.cls-1{fill:#b4b4b4;}</style></defs><path class="cls-1" d="M540,0C241.77,0,0,241.77,0,540s241.77,540,540,540,540-241.77,540-540S838.23,0,540,0Zm0,323.44L646.44,270,540,472.41,433.51,270ZM683.81,756.07c-91,79.33-229.11,69.86-308.44-21.16S305.52,505.8,396.53,426.47l1.64-1.4-75.94-31.95V286.2L454,342.49S525.4,478,527,481.1a111,111,0,1,0,25.92,0C554.58,477.92,626,342.49,626,342.49L758,286.2V393.12L682.11,425l1.59,1.41.11,0A217.85,217.85,0,0,1,705,447.63C784.3,538.65,774.83,676.74,683.81,756.07Z"/></svg>