<svg id="레이어_1" data-name="레이어 1" xmlns="http://www.w3.org/2000/svg" viewBox="0 0 1080 1080"><defs><style>.cls-1{fill:#b4b4b4;}</style></defs><path class="cls-1" d="M930.54,167.08,646.66,535.7H595.48L901.86,139.18A538,538,0,0,0,540,0C241.77,0,0,241.77,0,540A537.55,537.55,0,0,0,105.08,860.11c18.12-22.41,60.2-75.49,99.61-128,46.27-59.83,89.69-118,93.49-123.55,9.23-13.4,22.52-42.34,22.52-42.34h68.49s2.12,26.62,4.11,33.08c1.78,5.71,43.51,142.62,44.49,144.09l23.07-29.5-39.44-121.4s-9.24-22.85-12.25-26.27h80A69.77,69.77,0,0,0,491.78,588c3.25,10,20.4,71.9,20.4,71.9s54.56-68.4,57.76-73.31a44.29,44.29,0,0,0,6.73-20.34h66.66s-12.2,8.92-33.59,36c-7.18,9.1-77.57,98.56-77.57,98.56s6.14,20.94,9.13,31.36c.82,3,1.39,5,1.39,5.23s1.55-1.81,4.22-5.23c18.16-23,100.77-131.33,105.77-140.61,4-7.49,10-16,13.46-25.28h65s1.51,19.42,3.49,24.79l40.71,141.1c15.53,43.46,47.54,156.55,60.27,165.56h-84A139.86,139.86,0,0,0,747.66,868c-3.62-12.93-34-110.72-34-110.72H580.16l-21,29.75S584.38,866,586,869.83c2.71,7,14.75,27.84,14.75,27.84H520.17s-2.09-12-2.87-17.07c-.63-4.05-7.63-26.25-7.63-26.25s-18.26,20-23.23,29.28-7.25,14-7.25,14h-63s-2.1-12-2.89-17.07c-.61-4.05-8.32-28-8.32-28S387.35,874,382.32,883.24s-7.13,14.43-7.13,14.43H312.88s17.6-16.76,23.76-24C347,861.51,385.69,811,385.69,811L370.18,757.3H237.71s-75.53,99.25-78.5,102.32c-2.77,2.78-21.57,29.66-25,36.67C233.19,1008.91,378.29,1080,540,1080c298.23,0,540-241.77,540-540A538.14,538.14,0,0,0,930.54,167.08Z"/><path class="cls-1" d="M676.41,629.58c-9.55,20.54-65.75,89-65.75,89h89s-17.25-53.13-20.26-65.11a94.62,94.62,0,0,1-1.75-23.27C677.66,629.07,677.46,627.3,676.41,629.58Z"/><path class="cls-1" d="M334.43,629.58c-9.55,20.54-65.75,89-65.75,89h89s-17.23-53.13-20.24-65.11a94.62,94.62,0,0,1-1.75-23.27C335.69,629.07,335.47,627.3,334.43,629.58Z"/><path class="cls-1" d="M476.88,759.11l-23.69,30.74L468.43,837l24.5-33.65C490.68,801,476.88,759.11,476.88,759.11Z"/></svg>