<svg id="레이어_1" data-name="레이어 1" xmlns="http://www.w3.org/2000/svg" viewBox="0 0 1080 1080"><defs><style>.cls-1{fill:#b4b4b4;}</style></defs><path class="cls-1" d="M491.79,438.85A25.59,25.59,0,0,0,505,435.3c7.06-3.52,8-14.12,8-14.12a18.08,18.08,0,0,0-3.52-14.13c-4.43-4.4-10.61-5.29-16.79-5.29h-8.83s-2.34,16.54-5.33,37.09Z"/><polygon class="cls-1" points="629.47 405.37 607.39 458.35 636.53 458.35 629.47 405.37"/><path class="cls-1" d="M540,0C241.77,0,0,241.77,0,540s241.77,540,540,540,540-241.77,540-540S838.23,0,540,0ZM657.78,375.36c.83,8.82,22,130.66,23.76,142.13H644.48c-.89-6.17-3.54-29.11-3.54-29.11l-45,.86s-9.7,23.93-11.47,28.25h-38c7.06-14.12,60.93-135.95,63.57-142.13ZM760.45,555.47c-30.91,15-64.45,25.59-91.82,33.54,1.75-8.81,4.4-27.37,5.29-33.54Zm-159,30.91-2.63,19.41-37.09,5.3c3.52-28.26,7.06-52.08,7.95-55.62h90.05c-.89,7.94-3.54,24.73-4.43,30.91ZM645.6,604c-1.77.89-3.54.89-5.29,1.77A12.49,12.49,0,0,1,645.6,604Zm20.31-6.18q-7.93,2.67-18.54,5.3C654.44,601.39,659.73,599.62,665.91,597.84Zm-160.69,8.84L515.81,612l0,0c1.85.89,4.42,1.77,6.17,2.66-23,1.75-45,2.63-66.2,3.52a44.75,44.75,0,0,1-4.32-19.44v-7.06a48.13,48.13,0,0,1,17.47-31.91c11.47-8.81,28.26-12.35,45.9-9.69a68.87,68.87,0,0,1,33.57,15.12c-2.66,5.29-9.81,20.3-14.13,28.25-8.83-7.06-15.89-11.49-23-12.38a16.65,16.65,0,0,0-13.24,2.66,10.82,10.82,0,0,0-4.32,8.83C493.73,600.5,501.68,604.91,505.22,606.68Zm-54.1-232.16H505c12.38,0,28.25,2.64,38,13.24a35.38,35.38,0,0,1,8,23.76,36.06,36.06,0,0,1-.88,9.72c-3.55,26.48-16.79,31.8-34.43,35.32l29.13,60.05H507.69L477.4,446.4c-4.45,30.36-9.82,65.8-11.27,70.27H430.81C432.58,505.18,450.23,383.36,451.12,374.52ZM393.94,606.68,404.52,612a41.06,41.06,0,0,1,12.11,6.87h.14l.11.19-.25-.19c-28.19-.8-52.85-1.69-70.49-4.32H343.5A35.92,35.92,0,0,1,340,597.74v-6.18a48.14,48.14,0,0,1,17.67-31.8c11.47-8.81,28.25-12.35,45.9-9.69a68.72,68.72,0,0,1,33.55,15.12c-2.64,5.29-9.7,20.3-14.13,28.25-8.81-7.06-15.88-11.49-22.94-12.38a16.65,16.65,0,0,0-13.24,2.66,10.79,10.79,0,0,0-4.32,8.83C382.45,600.5,390.4,604.91,393.94,606.68Zm-3.74-232.2h38.88c-1.77,11.47-19.41,133.31-20.3,142.15H369.9C371.65,505.14,389.32,383.31,390.2,374.48Zm-173.94.91H264l10.59,80.37s32.66-75,35.31-81.22h49.44c0,9.7-6.17,131.55-6.17,142.15H317.8l6.2-99.81s-39.72,92.71-42.38,99.77H252.46l-12.35-98.88c-.89,4.32-14.13,70.63-21.19,99.74H183.6C187.14,505.16,214.51,383.34,216.26,375.39Zm553,218.05H740.1s-14.12,98.88-15,106.81H685.37c.88-9.7,10.6-77.69,14.12-99.75-22.11,8-38.88,13.24-38.88,13.24a58.06,58.06,0,0,1-10.6,3.52c-.89,8-2.64,20.31-3.52,25.62H596.16l-3.54,26.55h55.66c-.78,8-3.43,24.71-4.32,30.89H552.14c.88-5.25,4.51-32.62,8.83-62.64-6.17.88-11.47,1.77-17.67,2.65a55.19,55.19,0,0,1,.89,21.19,48.56,48.56,0,0,1-19.44,32.66c-12.35,9.72-28.25,13.24-45,10.61-15.87-1.77-31.77-9.72-45.9-23,3.42-5.3,13.25-22.08,18.54-30,7.06,7.06,16.78,16.78,29.14,18.56,5.29.88,12.35,1.75,17.66-1.78a17.16,17.16,0,0,0,4.32-7.94V658c0-5.29-2.74-8.81-7.06-12.36-14.13,1.67-37.09,3.44-63.57,4.32a53.76,53.76,0,0,1-.88,11.47,48.6,48.6,0,0,1-19.44,32.66c-12.36,9.72-28.26,13.24-45,10.61-15.88-1.77-31.77-9.72-45.9-23,3.41-5.29,13.24-22.08,18.53-30,7.07,7.07,16.79,16.79,29.14,18.56,5.29.88,12.36,1.75,17.67-1.77a17.34,17.34,0,0,0,4.32-8v-2.66a16.67,16.67,0,0,0-1.77-7.06c-24.71,0-52.08,0-78.58-1.75,4.51,25.59,7.95,46.87,8.83,51.19H282.64c-.78-5.29-4.32-35.32-4.32-35.32H238.59s-13.24,31-15,35.32h-38c7.06-14.13,60.93-136,63.57-142.13h47.63c.88,3.52,5.4,27.37,9.72,54.74-23.85-4.41-41.5-9.72-41.5-9.72l-30,28.25c26.48,2.66,52.1,5.29,76.81,6.18,15.9.88,31.79,1.77,47.69,1.77h17.65c18.53,0,38-.89,55.62-1.77a42.89,42.89,0,0,1,10.6-.89h.87c3.54,0,7.06-.86,10.6-.86h.89c3.52,0,7.06-.89,10.58-.89h.89c3.54,0,6.18-.88,9.72-.88,21.19-1.77,41.47-4.43,60.91-7.07h.93c3.54-.88,7.06-.88,10.6-1.77h1.75c3.55-.88,7.07-.88,10.61-1.77h.89c18.53-3.52,35.31-7.06,51.19-10.58,0-.89.88-.89,1.77-.89,1.77,0,2.66-.88,4.43-.88a31.3,31.3,0,0,0,8.81-1.78c.88,0,2.66-.86,3.54-.86,1.75-.89,3.52-.89,5.29-1.77.89,0,2.66-.89,3.52-.89,1.78-.88,3.55-.88,5.32-1.77.88,0,1.75-.88,2.63-.88,6.18-1.75,11.49-3.52,17.67-5.3,0-.88.89-.88,1.77-.88,1.75-.89,3.52-.89,5.3-1.77.88,0,.88-.87,1.77-.87A64.76,64.76,0,0,0,688,590.78h0c40.61-13.24,68.87-25.59,86.53-31.77C772.78,567.82,770.13,587.26,769.24,593.44Zm-79.75-76.81c1.77-11.49,19.42-133.32,20.31-142.15h90c-.77,7.95-3.43,24.71-4.32,30.89H741.61L738.07,431H788.4c-1.68,7.07-3.43,22.08-4.32,28.26H733.62l-3.54,26.48h55.56c-.78,7.95-3.44,24.71-4.32,30.91Zm97.38,30.89-1.77-2.64c19.44-15.9,87.41-66.22,109.46-149.21l45-21.19C916.64,468.94,834.54,520.15,786.87,547.52Z"/></svg>