<svg id="레이어_1" data-name="레이어 1" xmlns="http://www.w3.org/2000/svg" viewBox="0 0 1080 1080"><defs><style>.cls-1{fill:#b4b4b4;}</style></defs><path class="cls-1" d="M611.25,595.42c.88,2.93,1.76,5.86,2.6,8.81Q612.59,599.8,611.25,595.42Z"/><path class="cls-1" d="M1079.43,515.55C1065.91,217.67,813.54-13,515.53.57S-13,266.4.57,564.37s265.91,528.47,563.86,515.07S1093,813.44,1079.43,515.55ZM231.52,824V256c129.59,15.47,228.06,77.39,296.11,168.74l-4.19,6.19c-35.08,51.83-62,112.54-80,180.43C426,677.11,417.17,748.65,417.17,824Zm205.65,0c0-145.93,34-280.17,102.83-381.86,30.63,45.26,54.34,97,71.25,153.27q1.34,4.4,2.6,8.82c19.36,67.86,29,142.16,29,219.77Zm411.31,0H662.83c0-75.35-8.84-146.89-26.27-212.64-18-67.89-44.92-128.6-80-180.43l-4.19-6.19c68-91.35,166.52-153.27,296.11-168.74Z"/></svg>