<svg id="레이어_1" data-name="레이어 1" xmlns="http://www.w3.org/2000/svg" viewBox="0 0 1080 1080"><defs><style>.cls-1{fill:#b4b4b4;}</style></defs><path class="cls-1" d="M540,0C241.77,0,0,241.77,0,540s241.77,540,540,540,540-241.77,540-540S838.23,0,540,0Zm0,864a322.8,322.8,0,0,1-218.27-84.57l18.84-.4q20.46.45,74.18,1.39,10.11,0,10.11-4.65c0-2.62-2.06-3.94-6.15-3.94A180.27,180.27,0,0,1,394.12,770q-11.06-1.89-14.76-9.29Q375.43,754,374.45,743q-3.21-33.63-2.7-104.48v-6.67c0-2.71,1.39-4.06,4.19-4.06l43.92,1a12.11,12.11,0,0,1,9.12,3.58q5.92,6.2,20.24,25.76,14.05,20,29.85,41.5,39.23,55.81,69.09,71.79a72.15,72.15,0,0,0,21.71,6.72q11.58,2.31,32.32,2.31H650.3q9.63,0,9.62-4.62c0-2.62-2.06-3.93-6.16-3.93a83.38,83.38,0,0,1-14.07-1.43q-5.67-.95-20.23-6.91-14.57-5.71-36.51-26.2-43.44-46-109.56-128.4,38-29.77,53.05-56.46,14.07-26,13.57-52.65-.5-25.47-11.6-43.11-11.1-16.92-22.7-23.82a115.76,115.76,0,0,0-44.41-17.63,347.19,347.19,0,0,0-48.6-3.34q-34.31,1-71.06,1.43-22.22-.94-69.34-1.43-11.1,0-11.1,4.16,0,4.86,8.65,4.39a111.31,111.31,0,0,1,19.74,1.43q12.6,1.91,17,8.82,4.2,6.21,4.7,19.07.82,7.63.83,103.47v86q0,70.23-2.46,103.79-1,10.95-4.18,17.61a17.75,17.75,0,0,1-.94,1.79A322.78,322.78,0,0,1,216,540c0-178.94,145.06-324,324-324a322.49,322.49,0,0,1,191.56,62.73c-34.43.24-71.17.37-110.54.37q-26.94-.94-72.92-1.43-11.13,0-11.13,4.16,0,4.86,8.65,4.39a111.48,111.48,0,0,1,19.75,1.42q12.6,1.92,17,8.81,4.2,6.19,4.69,19.05.84,7.62.84,103.31v86q0,70.35-2.46,104-1,11-4.18,17.64a14.68,14.68,0,0,1-10.58,9.29q-6.4,1.9-18.21,1.91-8.38,0-7.88,3.93,0,4.62,10.16,4.62,38.4-.93,63.9-1.39,35.43,1.41,140.45,2.82,14.11,0,19.82-1.91,5.44-1.91,7.68-10.71,2.48-8.81,4.45-26.89a255.59,255.59,0,0,0,2-27.14q.51-8.33-4-8.81a5.76,5.76,0,0,0-3.72,1.43q-1.5,1.42-2,6-4,28.58-22.88,36-10.18,4.53-23.87,5-13.17,1-23.87.95-37.8.48-49.48-8.33-11.68-8.34-11.69-32.62-.51-36.19,0-75.72V466.19q-.51-4.77,3-4.77h37.56q25.22.48,34.36,1.43,14.09,1.42,20.76,6.43a23.75,23.75,0,0,1,7.66,12.62,89.48,89.48,0,0,1,2,17.62c-.34,2.86,1.14,4.28,4.44,4.28,2.47,0,3.86-1.1,4.19-3.33a34.78,34.78,0,0,0,.5-6q0-11.67,2.07-32.62,3.63-34,4.15-35.45,0-4.05-3.47-4.05-3,0-8.17,6.44-6.45,6.2-24.28,7.39-11.16.48-40.13.48-29.48.46-41.12.47c-2.65,0-3.81-1.82-3.47-5.48V308.13q0-4.77,3.47-4.77,10.63,0,37.14.47,26.25.5,34.92,1.43,18.33,1.92,25.26,6.19,7.18,4.53,8.67,11.19,3.23,10.71,3.22,17.61-.76,6.92,4.58,6.91c3.4-.32,5.1-2.13,5.1-5.45.82-8.2,1.47-16,2-23.59A322.76,322.76,0,0,1,864,540C864,718.94,718.94,864,540,864ZM376.43,436.65q7.67-1.89,26.66-1.9a89.62,89.62,0,0,1,25.43,4.05,70.61,70.61,0,0,1,24.69,14.52q12.57,9.76,20.23,27.39Q480.6,497.6,480.6,524q-.5,29.78-9.13,47.39-8.64,17.87-20.74,25.71a39.57,39.57,0,0,1-13.08,6.43q-8.14,1.92-22.71,1.91a141.91,141.91,0,0,1-38.51-5q-5.21-1.44-4.68-8.57V443.56C371.4,439.75,373,437.46,376.43,436.65Z"/></svg>