<svg id="레이어_1" data-name="레이어 1" xmlns="http://www.w3.org/2000/svg" viewBox="0 0 1080 1080"><defs><style>.cls-1{fill:#b4b4b4;}</style></defs><path class="cls-1" d="M429.91,443.49a42.44,42.44,0,1,0,0,.22C429.92,443.64,429.92,443.56,429.91,443.49Z"/><path class="cls-1" d="M1079.43,515.55C1065.91,217.67,813.54-13,515.53.57S-13,266.4.57,564.37s265.91,528.47,563.86,515.07S1093,813.44,1079.43,515.55Zm-291.7,30.07C755.35,599.45,696.15,656,571.6,672.2c2.27,24.77,9.7,60,18.08,83.09H504.86a390.4,390.4,0,0,0,17.71-80.35c-41.39-1-87.85-10.11-129.6-31.88-50.26-26-122.88-87.76-122.88-191,0-67.11,44.47-127.31,118.8-127.31,47.21,0,85.19,26.24,109.85,73.33,23.61,45.08,46.53,80.85,92.73,82.86,33.14,1.4,60.91-12.62,96.64-50.14,27.48-29.07,74.13-34,102.21-5.5h-.06c13.41,13.21,19.57,30.8,19.67,50.11C810,497.41,802.27,521.86,787.73,545.62Z"/></svg>