<svg id="레이어_1" data-name="레이어 1" xmlns="http://www.w3.org/2000/svg" viewBox="0 0 1080 1080"><defs><style>.cls-1{fill:#b4b4b4;}</style></defs><path class="cls-1" d="M282.12,540c0,131,98.22,239.2,224.82,255.51V672.82H437.89a56.59,56.59,0,0,1-56.58-56.59V463.77a56.58,56.58,0,0,1,56.58-56.59h69.05V284.49C380.34,300.8,282.12,409,282.12,540Z"/><rect class="cls-1" x="573.06" y="473.3" width="59.51" height="133.4"/><rect class="cls-1" x="447.43" y="473.3" width="59.51" height="133.4"/><path class="cls-1" d="M573.06,284.49V407.18h69.05a56.58,56.58,0,0,1,56.58,56.59V616.23a56.59,56.59,0,0,1-56.58,56.59H573.06V795.51C699.66,779.2,797.88,671,797.88,540S699.66,300.8,573.06,284.49Z"/><path class="cls-1" d="M1079.43,515.55C1065.91,217.67,813.54-13,515.53.57S-13,266.4.57,564.37s265.91,528.47,563.86,515.07S1093,813.44,1079.43,515.55ZM540,864c-178.94,0-324-145.06-324-324S361.06,216,540,216,864,361.06,864,540,718.94,864,540,864Z"/></svg>