<svg id="레이어_1" data-name="레이어 1" xmlns="http://www.w3.org/2000/svg" viewBox="0 0 1080 1080"><defs><style>.cls-1{fill:#b4b4b4;}</style></defs><path class="cls-1" d="M1079.43,515.55C1065.91,217.67,813.54-13,515.53.57S-13,266.4.57,564.37s265.91,528.47,563.86,515.07S1093,813.44,1079.43,515.55ZM272.62,629.17l-74.26-83.92v83.92H162V446.56h36.36v83.7l71.88-83.7h45.53l-78.43,91.31,80.81,91.3Zm126.25,4.17c-45.06,0-69-30.31-69-66.51V446.56h36.33V514c10.73-9.14,23.78-15.62,39.05-15.62,38.12,0,62.64,30.63,62.75,67.74C468,605.37,439.39,633.34,398.87,633.34Zm225.84-67.61v63.5H591.84V611.67a55.91,55.91,0,0,1-43.42,21.78c-38.53,0-63.33-30.63-63.33-67.74,0-39.12,28.73-67.2,69.77-67.2,45.62,0,69.79,30.31,69.85,66.51l-.3.71ZM773.06,548v81.28H736.47V558.11a26.81,26.81,0,0,0-53.59,0v71.12H646.55V502.38h36.33v12a61,61,0,0,1,41.93-16,48.43,48.43,0,0,1,48.25,48.09Zm105,81.22-47-54.8v54.8H794.64V446.56H831V557.5l46.18-54.65h39.19l-53,63.16L918,629.17Z"/><path class="cls-1" d="M555.64,531.13a34.56,34.56,0,0,0,0,69.12h0a34.56,34.56,0,0,0,0-69.12Z"/><path class="cls-1" d="M398.76,531.32a34.56,34.56,0,0,0-34.56,34.56v1a34.56,34.56,0,0,0,34.56,33.59v0a34.56,34.56,0,0,0,0-69.12Z"/></svg>