<svg id="레이어_1" data-name="레이어 1" xmlns="http://www.w3.org/2000/svg" viewBox="0 0 1080 1080"><defs><style>.cls-1{fill:#b4b4b4;}</style></defs><rect class="cls-1" x="859.83" y="509.59" width="96.76" height="22.38"/><rect class="cls-1" x="672.9" y="509.59" width="96.76" height="22.38"/><rect class="cls-1" x="672.9" y="547.37" width="96.76" height="23.04"/><path class="cls-1" d="M540,0C241.77,0,0,241.77,0,540s241.77,540,540,540,540-241.77,540-540S838.23,0,540,0ZM231.23,510.38H123.41v59.24H231.23v16.46h-102c-15.67,0-23.57-8-23.57-21.07V515c0-13,7.9-21.07,23.57-21.07h102Zm178.25,75.7H392.1V547.77H299.29v38.31H281.91V493.92h17.38v37.65H392.1V493.92h17.38ZM595.63,565c0,13-7.9,21.07-23.57,21.07H492.94c-15.67,0-23.56-8-23.56-21.07V493.92h17.37v75.7h91.5v-75.7h17.38Zm191.8-42.25c0,3.42-1.19,5-3.69,7.1l-11,9.48,11,9.48c2.5,2.11,3.69,3.69,3.69,7.11v10.8c0,12.24-7.9,19.35-25,19.35H655.52V493.92h106.9c17.11,0,25,7.11,25,19.36Zm183.25,26.06c2.5,2.11,3.69,3.69,3.69,7.11v10.8c0,12.24-7.9,19.35-25,19.35H842.46V493.92H949.35c17.12,0,25,7.11,25,19.36v9.48c0,3.42-1.19,5-3.69,7.1l-11.06,9.48Z"/><rect class="cls-1" x="859.83" y="547.37" width="96.76" height="23.04"/></svg>