<svg id="레이어_1" data-name="레이어 1" xmlns="http://www.w3.org/2000/svg" viewBox="0 0 1080 1080"><defs><style>.cls-1{fill:#b4b4b4;}</style></defs><path class="cls-1" d="M824.57,507c-12.09,0-24,9-26.45,20H851C847.12,515.65,836.67,507.05,824.57,507Z"/><path class="cls-1" d="M453.61,509.94c-16.12.17-28.62,12-28.78,29.09.16,17.14,12.65,29,28.74,29.13,16.59-.27,28.51-11.65,28.75-29.08C482.08,521.59,470.16,510.2,453.61,509.94Z"/><path class="cls-1" d="M606.69,509.94c-16.82.21-28.52,12.15-28.76,29.09.24,17,11.94,28.92,28.75,29.13,16.81-.21,28.51-12.14,28.74-29.07C635.19,522.09,623.47,510.15,606.69,509.94Z"/><path class="cls-1" d="M1079.43,515.55C1065.91,217.67,813.54-13,515.53.57S-13,266.4.57,564.37s265.91,528.47,563.86,515.07S1093,813.44,1079.43,515.55ZM161.57,578A10.79,10.79,0,0,1,140,578s0-110.4,0-110.4a10.79,10.79,0,0,1,21.57.08S161.57,578,161.57,578Zm45.61,0a10.79,10.79,0,0,1-21.58-.1s0-58.81,0-58.81a10.79,10.79,0,0,1,21.57.08Zm-10.79-81.63a14.19,14.19,0,1,1,14.19-14.2A14.19,14.19,0,0,1,196.39,496.42ZM272.92,518h-13v59.62a11,11,0,0,1-22.05,0V518H232a11,11,0,1,1,0-22h5.88c.16-3.1-.14-18,7-26.45,2.74-3.26,5.68-6.6,9.47-8.67,5.11-2.79,10.73-4,16.87-4.45a11,11,0,1,1,1.6,22c-4.2.29-8.69,3.43-10.27,6.5A21.72,21.72,0,0,0,259.92,496h13a11,11,0,1,1,0,22Zm108.26,50.39a51.47,51.47,0,0,1-41.36,21h0a51.46,51.46,0,0,1-41.35-21,10.24,10.24,0,0,1,2-14.09c3.89-2.89,11-2.07,13.73,1.67a31.42,31.42,0,0,0,25.58,12.69h0A31.46,31.46,0,0,0,365.42,556c2.77-3.74,9.83-4.56,13.73-1.67A10.26,10.26,0,0,1,381.18,568.39Zm3.46-24.6a9.87,9.87,0,0,1-6.94,2.88H301.92a9.83,9.83,0,0,1-9.82-9.82c0-26.83,21.2-48.73,47.71-48.74s47.66,21.91,47.71,48.74A9.89,9.89,0,0,1,384.64,543.79ZM489.25,575a50.32,50.32,0,0,1-35.64,14.33h-.69c-10.52-.09-19.49-2.87-28.08-9.88v33.49a10.79,10.79,0,0,1-21.57-.07V500.18a10.84,10.84,0,0,1,10.84-10.71c5.1,0,10.09,4.25,10.73,8.87,0-.22,12.59-9.61,28.46-9.61h.43a50.33,50.33,0,0,1,35.5,14.4h0a50,50,0,0,1,14.63,35.67v.8A50.16,50.16,0,0,1,489.25,575ZM540.91,578a10.79,10.79,0,0,1-21.57-.09s0-110.4,0-110.4a10.79,10.79,0,0,1,21.57.08S540.91,578,540.91,578ZM657,577.92a10.77,10.77,0,0,1-21.24,2.46l-.36-1.47c-10.65,10-27.58,10.45-27.58,10.45h-1.36a49.63,49.63,0,0,1-50.09-50.26V539a49.62,49.62,0,0,1,50.06-50.23h.39a50.43,50.43,0,0,1,32.13,11.32s3.75,3.44,3.75,3.44a50.42,50.42,0,0,1,14.3,35Zm105.94,0a10.8,10.8,0,0,1-21.59-.07V533.42c-.28-13.52-9.25-23-23.58-23.29-14.42.27-23.37,9.77-23.64,23.26l0,44.53a10.78,10.78,0,0,1-21.56-.06s0-44.33,0-44.33a44.62,44.62,0,0,1,13-31.73,45.13,45.13,0,0,1,32-13.06h.39A45.17,45.17,0,0,1,750,501.79a44.62,44.62,0,0,1,12.95,31.74h0Zm103-9.54a51.46,51.46,0,0,1-41.35,21h0a51.47,51.47,0,0,1-41.36-21,10.26,10.26,0,0,1,2-14.09c3.89-2.89,11-2.07,13.73,1.67a31.44,31.44,0,0,0,25.59,12.69h0A31.44,31.44,0,0,0,850.18,556c2.77-3.74,9.83-4.56,13.73-1.67A10.25,10.25,0,0,1,865.94,568.39Zm3.46-24.6a9.85,9.85,0,0,1-6.93,2.88H786.69a9.85,9.85,0,0,1-9.83-9.82c.06-26.83,21.2-48.73,47.71-48.74s47.66,21.91,47.71,48.74A9.89,9.89,0,0,1,869.4,543.79ZM929,518H916.33v31.47c0,4.1-.87,14.48,9.38,17.15,6.43.9,10.62,5.72,10.18,11.8a11,11,0,0,1-11,10.22c-.28,0-.54,0-.81,0-27.54,0-29.82-28.33-29.82-32V518H888.4a11,11,0,0,1,0-22h5.89V467.39a11,11,0,0,1,22,0V496H929a11,11,0,0,1,0,22Z"/><path class="cls-1" d="M339.81,507c-12.09,0-24,9-26.45,20h52.9C362.36,515.65,351.91,507.05,339.81,507Z"/></svg>