<svg id="레이어_1" data-name="레이어 1" xmlns="http://www.w3.org/2000/svg" viewBox="0 0 1080 1080"><defs><style>.cls-1{fill:#b4b4b4;}</style></defs><polygon class="cls-1" points="714.75 568.68 714.75 568.68 759.59 568.68 736.92 512.67 714.75 568.68"/><path class="cls-1" d="M318.62,484.48H282.13v45.93h36.81c18.53,0,29.14-8.28,29.14-22.65v-.66C348.08,488.4,332.06,484.48,318.62,484.48Z"/><path class="cls-1" d="M1079.43,515.55C1065.91,217.67,813.54-13,515.53.57S-13,266.4.57,564.37s265.91,528.47,563.86,515.07S1093,813.44,1079.43,515.55ZM792.53,651.76l-13.88-32.67H695.21l-13.83,32.54H580.57V637.47a115.88,115.88,0,0,1-178.18-82.09,65.6,65.6,0,0,1-7.82,9.21c-7.46,7.64-18.69,13.49-29.92,17.56l66.6,69.5H350.67l-68.54-71.71v71.71H216V428.43H322.19c32.22.08,56.59,8.32,72.38,24.43,9.75,9.51,16,21.51,18.66,35.84a115.84,115.84,0,0,1,189.35-27.53L566.2,505.52a59.73,59.73,0,1,0,3.44,63.32H509.22V519H630.17v85.13l75-176.36h63.54v0l95.33,224Z"/></svg>