<svg id="레이어_1" data-name="레이어 1" xmlns="http://www.w3.org/2000/svg" viewBox="0 0 1080 1080"><defs><style>.cls-1{fill:#b4b4b4;}</style></defs><path class="cls-1" d="M1079.43,515.55C1065.91,217.67,813.54-13,515.53.57S-13,266.4.57,564.37s265.91,528.47,563.86,515.07S1093,813.44,1079.43,515.55ZM313.34,837c-22.53-22.2-36.41-41.67-49.85-70.46-25-11.66-43.05-22.2-65.44-35.9,16-7.2,29.72-11.91,49.13-17.3-6.05-34.13-4.27-64.76.42-107.66,8.76,40.48,16.57,69.55,33.79,99.67,21.15-4,39.24-6.77,63.79-10.43-13.35,19.81-21.52,35.26-28.69,55,23.94,22.39,45.68,35.42,75.87,46.62-31.71-1-55.61-5.24-83.53-13.38C306.66,803.07,308.06,818.1,313.34,837Zm85.55-264.76c-12.38-29.86-30.27-89.63-30.27-89.63-34.33,18.36-113.3,92.64-113.3,92.64,43.41-87,87.47-126.52,87.47-126.52-15.16-15.36-54.92-23-84-24.31,15.09-6.16,53.82-13.36,83.57-14.73,29.79-.85,47.81.84,47.81.84,26.56-21,66.89-38.64,80.78-40.7-9.4,12.21-20.31,35-23.26,45.56C525.52,426,588,465.91,588,465.91c-68-12.06-103.9-10.56-129.29-8.29C433.44,460,428.25,463,428.25,463,409.9,503.19,398.89,572.26,398.89,572.26ZM558.66,795.63a200.52,200.52,0,0,0,5.9,24c-9.33,1.85-22,2.73-35.65,2.2-26,15.4-61,26.69-87.64,33a329.26,329.26,0,0,0,46.05-35.43,181.07,181.07,0,0,1-47.21-16.35c25.54,0,46.44-2.73,72.61-10.08a639.65,639.65,0,0,0,40.79-50.3c.59,13,1.21,22.86,2.29,34.44,25.13-11.88,43.87-23.19,65.59-38.35C601,759.44,583.19,776.64,558.66,795.63Zm273.13-494c8.73,23.33-12.12,151.63-29.33,185.62-.62-53.67-5.31-121.46-25.39-150.92C724.54,367.18,708.44,369.78,651.3,404c33.28-36.1,44.84-51.46,65.43-81.67-52.67,2.79-129.22,9.13-183.86,21.23,47.57-25.41,141.88-53.65,191.67-60.38-11.55-15.93-105-66.54-128.23-76.3,74,5.76,164.39,33.4,208.22,60.2,17.25-5.38,35.18-5.64,67.28-8.5C863.63,272.59,863.28,280.71,831.79,301.59Z"/></svg>