<svg id="레이어_1" data-name="레이어 1" xmlns="http://www.w3.org/2000/svg" viewBox="0 0 1080 1080"><defs><style>.cls-1{fill:#b4b4b4;}</style></defs><path class="cls-1" d="M1079.43,515.55C1065.91,217.67,813.54-13,515.53.57S-13,266.4.57,564.37s265.91,528.47,563.86,515.07S1093,813.44,1079.43,515.55Zm-704,183.27L289.55,587.29H276V698.82H216V403.34l60-62.16V527.31h16.25l70-81.55h81.92L348.38,557.3l109,141.52Zm244.44,0H535.61A56.31,56.31,0,0,1,479.3,642.5v-115h-60l120-146.08v83.91h77.52v62.17H539.27V638.85h80.61ZM864,642.5a56.31,56.31,0,0,1-56.32,56.32H713.34A56.31,56.31,0,0,1,657,642.5V403.34l60-62.16V463.24h90.69A56.31,56.31,0,0,1,864,519.55Z"/><path class="cls-1" d="M787.94,523.21H717v99.55a16.1,16.1,0,0,0,16.09,16.09h54.86A16.1,16.1,0,0,0,804,622.76V539.3A16.09,16.09,0,0,0,787.94,523.21Z"/></svg>