<svg id="레이어_1" data-name="레이어 1" xmlns="http://www.w3.org/2000/svg" viewBox="0 0 1080 1080"><defs><style>.cls-1{fill:#b4b4b4;}</style></defs><path class="cls-1" d="M702,495.84c-11.29,0-16.21,10.71-16.21,25.18,0,20.55,6.07,24.32,16.21,24.32,9.26,0,15.92-3.19,16.21-24.61C718.18,505.68,714.7,495.84,702,495.84Z"/><path class="cls-1" d="M769.42,551.42v1.73A12.28,12.28,0,0,0,782.15,565a28.56,28.56,0,0,0,18-9.26v-.87l.29-25.18C789.39,529.71,769.42,536.94,769.42,551.42Z"/><path class="cls-1" d="M301.32,466.6h-8.1V521h9l.58.58c20.84,0,31.26-9.55,31.26-26.92S327.66,466.6,301.32,466.6Z"/><path class="cls-1" d="M548,495.84c-18.53,0-20,16.21-20,37.63,0,27.5,2.6,36.18,20,36.18,15.34,0,20.26-9.84,20.26-37.92C568.22,512.63,567.94,495.84,548,495.84Z"/><path class="cls-1" d="M1079.43,515.55C1065.91,217.67,813.54-13,515.53.57S-13,266.4.57,564.37s265.91,528.47,563.86,515.07S1093,813.44,1079.43,515.55ZM218.82,538.68c0,27.5-13,35.61-37.63,35.61-20.56,0-25.19-7.82-25.19-18.24,0-2.32,1.16-9.84,8.4-9.84s7.81,4.92,7.81,13V561a9.44,9.44,0,0,0,10.42,8.39c13.9,0,20.27-6.36,20.27-28.65V466H188.42v-3.76h45.16l.29,3.76H218.82Zm26.92,33a9.08,9.08,0,0,1-12.74,0,7.9,7.9,0,0,1-2.6-6.08,8.88,8.88,0,0,1,9-9v.29h.29a8.53,8.53,0,0,1,8.69,8.68A8.32,8.32,0,0,1,245.74,571.68Zm100.74-.29a9.08,9.08,0,0,1-12.74,0,8.17,8.17,0,0,1-2.89-6.08V565a9.11,9.11,0,0,1,9-8.39l.58-.29a8.35,8.35,0,0,1,6.08,2.6,9,9,0,0,1,2.61,6.37A7.88,7.88,0,0,1,346.48,571.39Zm-41.11-46H293.5v29.53a14.8,14.8,0,0,0,1.16,7,8.56,8.56,0,0,0,5.5,4.92,30.53,30.53,0,0,0,9,1.16v3.47H262v-3.47a26.88,26.88,0,0,0,8.4-1.45,9.21,9.21,0,0,0,5.5-4.92A25.88,25.88,0,0,0,277,551.13V466H264v-3.76h44.58c34.45,0,40.53,13,40.53,31.26S339.53,525.36,305.37,525.36Zm197.72,45.45H460v-3.47a24.74,24.74,0,0,0,7.81-1.45,8.63,8.63,0,0,0,4.64-4.92,36.52,36.52,0,0,0,.86-7.82v-75h-.86l-37.93,93.21h-3.76c0-1.16-40.24-94.08-40.24-94.08h-1.74v72.95l.29,7.81a12.62,12.62,0,0,0,2,5.5,10,10,0,0,0,5.5,3.48,16.82,16.82,0,0,0,5.5.87v3.47h-31v-3.47a23.64,23.64,0,0,0,6.36-.58,8.65,8.65,0,0,0,4.93-3.48,12.34,12.34,0,0,0,1.73-5.5V466h-13.6v-3.48h31.26c.29.87,35.61,83.09,35.61,83.09.29.29.58.58.87.58a.62.62,0,0,0,.58-.58L473,462.54h28.08V466H489.2v87.71a16.51,16.51,0,0,0,.86,7.53v-.87a10.16,10.16,0,0,0,4.93,5.5,26.51,26.51,0,0,0,8.1,1.45Zm44.58,3.77c-6.66,0-37-2.32-37-41.4,0-26.63,14.47-41.69,37.63-41.69,21.13,0,36.76,14.19,37,40.82C585.3,566.47,560.7,574.58,547.67,574.58Zm110.87-63.11c-10.13,5.5-10.13-8.11-18.81-8.11-8.4,0-15.64,11-15.64,20.27v28.08A21.71,21.71,0,0,0,625.83,563c1.45,2.6,4,3.76,9.84,3.76h2v4.92H593.12v-4.92h2.32c5.21,0,8.68-1.45,10.13-4a23.78,23.78,0,0,0,1.73-11V497.57H592.83v-4.05h26.92c.58,3.76,2.61,15.63,2.61,15.63h1.16c4.05-8.39,8.1-16.5,22-16.5C662.6,492.65,663.75,508.28,658.54,511.47Zm88.87-11a12,12,0,0,1-6.94,5.5,18.91,18.91,0,0,1-9.85,0,33.07,33.07,0,0,1,3.19,14.76c0,20.55-15.92,26.92-33,29.53s-21.42,4.63-21.42,10.13c0,3.47,2.31,5.5,14.18,5.5,24.9,1.16,35.9-.29,43.71,10.42a22.53,22.53,0,0,1,3.77,13.61c0,10.13-6.37,19.1-15.64,23.16a55.64,55.64,0,0,1-24.6,4.63,67.28,67.28,0,0,1-21.42-3.19,15.74,15.74,0,0,1-13-15,12.26,12.26,0,0,1,1.74-7.24,7.27,7.27,0,0,1,6.65-2.89h.87a6.37,6.37,0,0,1,4.06,8.1,10.34,10.34,0,0,0,4.05,11,32.5,32.5,0,0,0,19.39,4.35,44.7,44.7,0,0,0,21.14-4.35A13.59,13.59,0,0,0,732.65,596a10.73,10.73,0,0,0-3.76-9,22.44,22.44,0,0,0-10.13-3.47c-6.08-.58-12.45-.87-18.53-.87a63.56,63.56,0,0,1-23.16-3.47,12.78,12.78,0,0,1-8.68-12.16c0-11.58,10.42-15,22.29-17.08a.58.58,0,1,0,0-1.16c-13.9-3.18-20.27-10.71-20.27-27.5v-3.47c1.16-15.92,15.35-27.79,31.27-26.64a35.06,35.06,0,0,1,25.18,8.4,9,9,0,0,0,5.5.29c1.74-.58,2.9-2.32,3.48-5.5a7.65,7.65,0,0,1,4.63-6.08c4-1.16,6.95.58,8.39,4.92A9.26,9.26,0,0,1,747.41,500.47Zm68.32,71.79a14.68,14.68,0,0,1-15.05-11.87,34.22,34.22,0,0,1-26,13,20.81,20.81,0,0,1-21.14-18.53c-1.44-25.47,32.43-28.37,46.61-29.53v-13.6a19.69,19.69,0,0,0-3.18-11.29,17.86,17.86,0,0,0-22.58-1.16,15.22,15.22,0,0,0-3.48,9.26c-.87,5.79-3.47,8.11-7.81,8.11a7.83,7.83,0,0,1-4.92-1.74,6.59,6.59,0,0,1-2-5.5A14.69,14.69,0,0,1,763.05,497a41.18,41.18,0,0,1,24.6-6.08c11.58,0,19.69,2.32,23.74,6.37a21.06,21.06,0,0,1,5.5,16.21v42.85c.29,4.34,1.74,6.95,6.66,6.95,2.89,0,6.37-2.9,7-8.69h2.6C832.52,567.05,826.15,572.26,815.73,572.26ZM924,571.68H886.66v-4.92a12.17,12.17,0,0,0,6.08-1.74,7.16,7.16,0,0,0,3.47-5.5,52.52,52.52,0,0,0,0-9.55V524.49a48.83,48.83,0,0,0-2.61-18.23,10.72,10.72,0,0,0-10.71-5.5,17.37,17.37,0,0,0-15.63,8.68,49.08,49.08,0,0,0-2.89,22.29v20.56a18.39,18.39,0,0,0,2,11,10.09,10.09,0,0,0,7.82,3.18v4.92h-38.5v-4.92a17,17,0,0,0,6.66-1.16,6.66,6.66,0,0,0,4.63-4.92,50,50,0,0,0,.87-9.26V497.28H835.71v-4h24l2.9,14.19h1.74a27.68,27.68,0,0,1,25.47-15.06A28.28,28.28,0,0,1,901.71,495a20.31,20.31,0,0,1,7.82,7.81,25.2,25.2,0,0,1,2.6,13v35.32a22.93,22.93,0,0,0,2.9,11.58c1.44,2.31,4.34,3.47,9,4Z"/></svg>