<svg id="레이어_1" data-name="레이어 1" xmlns="http://www.w3.org/2000/svg" viewBox="0 0 1080 1080"><defs><style>.cls-1{fill:#b4b4b4;}</style></defs><path class="cls-1" d="M218.84,534.24,545.58,754.63,861.16,545.76,534.42,325.37ZM592.94,409,482.71,482l47.88,32.29,43.58-28.84-20.8-14L620,427.26,786.79,539.75,536.44,705.45l-57.3-38.64L662.85,545.22,631.46,524,447.75,645.63,285.29,536.05l250.36-165.7Z"/><polygon class="cls-1" points="443.44 571.93 488.72 541.95 440.85 509.66 395.56 539.63 443.44 571.93"/><polygon class="cls-1" points="669.13 545.08 665.86 547.25 485.43 666.67 536.7 701.25 780.5 539.89 619.75 431.45 559.65 471.23 666.13 543.05 669.13 545.08"/><path class="cls-1" d="M1079.43,515.55C1065.91,217.67,813.54-13,515.53.57S-13,266.4.57,564.37s265.91,528.47,563.86,515.07S1093,813.44,1079.43,515.55ZM542.92,796.61,156,535.63,537.08,283.39,924,544.37Z"/></svg>