<svg id="레이어_1" data-name="레이어 1" xmlns="http://www.w3.org/2000/svg" viewBox="0 0 1080 1080"><defs><style>.cls-1{fill:#b4b4b4;}</style></defs><path class="cls-1" d="M581.67,628.07h-43.2L527,678.38h43.2c17.11,0,30.41-6.48,34.56-24.54C609.12,634.51,597.89,628.07,581.67,628.07Z"/><path class="cls-1" d="M598,549.23H556.33l-9.53,42h41.69c9.29,0,23.2-5.23,26.74-20.86S609.34,549.23,598,549.23Z"/><path class="cls-1" d="M1079.43,515.55C1065.91,217.67,813.54-13,515.53.57S-13,266.4.57,564.37s265.91,528.47,563.86,515.07S1093,813.44,1079.43,515.55ZM354.33,728.68c-47.52,0-84.5-22.1-72.1-78.21h53.85c-4.71,25.77,8.48,34,31.38,34,16.22,0,34.43-6.13,38.08-22.4,4.32-19.29-24.34-23-52.16-31.9-27.5-8.88-55.3-23-46.2-63.18,10.8-47.85,60.47-66.57,99.35-66.57,41,0,77.76,21.16,66.86,70.58H419.56c5.38-19.93-10.8-26.39-27.35-26.39-11.6,0-27,4.32-30.24,18.7-3.82,16.87,25.32,20,53.4,28.86S470,615.8,461,655.37C448.42,710.86,399.8,728.68,354.33,728.68Zm207.79-4.62H462.76l49.72-219h96.64c35.79-.61,72.66,9.18,62.29,54.91-4.42,19.61-19.07,35.59-37.23,44.15,20.49,6.74,29.52,27,23.88,51.84C646.25,708.12,606.44,724.06,562.12,724.06Zm150.92,0h-53.9l49.66-219h53.87Zm75.64-178c14.23-27.15,18.27-53.13,9.63-75.81-29.76-79.1-200.14-88.15-380.52-20.2C322.4,486,243.35,536.25,194.4,587.37c35.43-67.47,134.35-142,263-190.44C637.74,329,808.14,338,837.93,417.1,852,454.36,832.27,500.56,788.68,546.07Z"/></svg>