<svg id="레이어_1" data-name="레이어 1" xmlns="http://www.w3.org/2000/svg" viewBox="0 0 1080 1080"><defs><style>.cls-1{fill:#b4b4b4;}</style></defs><path class="cls-1" d="M1079.43,515.55C1065.91,217.67,813.54-13,515.53.57S-13,266.4.57,564.37s265.91,528.47,563.86,515.07S1093,813.44,1079.43,515.55ZM540,864c-178.94,0-324-145.06-324-324S361.06,216,540,216,864,361.06,864,540,718.94,864,540,864Z"/><path class="cls-1" d="M540,267.13c-150.46,0-272.87,122.41-272.87,272.87S389.54,812.87,540,812.87,812.87,690.46,812.87,540,690.46,267.13,540,267.13ZM527.27,416H420.53v48.89h99.56V615.08H420.53V664H527.27v49.85H370.68V565.23h99.56V514.77H370.68V366.18H527.27Zm182.05,98.74H609.76v50.46h99.56V713.82H552.73V664H659.47V615.08H559.91V464.92h99.56V416H552.73V366.18H709.32Z"/></svg>