<svg id="레이어_1" data-name="레이어 1" xmlns="http://www.w3.org/2000/svg" viewBox="0 0 1080 1080"><defs><style>.cls-1{fill:#b4b4b4;}</style></defs><path class="cls-1" d="M1079.43,515.55C1065.91,217.67,813.54-13,515.53.57S-13,266.4.57,564.37s265.91,528.47,563.86,515.07S1093,813.44,1079.43,515.55Zm-233,111.81c-31.91,40.09-92.73,56.92-136.58,58.54.5,5.85-1.75,11-3.67,11.84-4.15,1.77-6.53,2.44-10.2,6.28a4.53,4.53,0,0,1-4.32.93c-69.22-19.68-202-114.85-237.38-134.57-.52,43.64,2.81,115.61,5.77,160.84,1.14,18.38,2.37,27.82.45,37.82h0a1,1,0,0,1-1.06.93c-8.53,1-21.55-4.13-25.31-6.7a3.82,3.82,0,0,1-1.21-1.19c-5.47-12.14-12.4-50.87-19.05-60.63a1.64,1.64,0,0,1-.28-.8c-8.38-43.24-10.8-97.67-11.47-145.32l.17-7.76-10.8,6a117.7,117.7,0,0,0-18.92,11.28c-3.57,2.74-7.15,5.61-11,5.61a.77.77,0,0,0-.54.18c-8,4.68-74.69,45.55-96.1,55.08-18.77,8.22-29.28,12.26-35.22,12a11.27,11.27,0,0,1-3.61-.41c-3.2-1.26-4.32-4.5-8.92-5.79-.76-.24-1.43-.8-.93-1.84,2.53-5.48,9.07-10.26,16.35-13.3a259.78,259.78,0,0,0,23.76-11.34C285,585.91,344.79,547,375,526c.78-.65,1.14-1.45.39-2.16-1.64-1.47-2.83-1.86-8.51-5.25a21.63,21.63,0,0,1-6.48-4.86,2.55,2.55,0,0,0-.74-.76c-12-7.64-41-22.22-69.55-37.6-24.69-13.24-47.8-29.2-56.57-38.23a.9.9,0,0,1-.26-.85c.35-2.87-2.55-7.51-1.14-9.67,4.36-6.81,20.09-17.32,27.65-18.62a4.27,4.27,0,0,1,3.21.76c9.44,5.46,24.56,16.15,32.25,20.8,7,4.14,14.43,8.89,20.91,9.69a6,6,0,0,1,1.32.35,809.63,809.63,0,0,1,85.25,47.41c.37.24.37-.15.37-.34,2.94-55.24,18.06-126.47,34.82-168.09a2.43,2.43,0,0,1,1.84-1.47c6.95-1.67,12.35-5.17,16.78-6.18s9.18-2.14,15.12.86a1.61,1.61,0,0,1,.47.39c1,1.08,2.73,6.2,5.58,10.52a4.55,4.55,0,0,1,.6,3.26c-8.7,45.3-16.59,104-18.75,145.22a.54.54,0,0,0,.89.43c35-22.55,108.43-68.13,139.43-85.73,7.21-4.1,13.73-6.93,21.85-14.54,27.35-25.63,56.77-39.09,78.89-36.93a2.65,2.65,0,0,1,1.62,1.75,26.82,26.82,0,0,1-.44,16,19.67,19.67,0,0,0-.77,5.18,3.67,3.67,0,0,1-.59,2.5C659,402.81,564.11,447.2,510.11,480a20.76,20.76,0,0,0-4,2.74c-3,4.62-39,24.3-47.52,30a3.53,3.53,0,0,0-1.88,2.16,11.66,11.66,0,0,0-.33,5.12c0,.34,0,.51.18.67,24.3,16.35,65.23,43,84.36,58.42,5,4,16.07,13.72,22.38,16.16,39.42,14.9,84.35,52.34,111.15,68.49,27.48,1,54-1.12,80.42-11.14,25.1-9.51,43.68-24.63,52.88-41.91,12.74-23.89,9.54-45.92,6.87-48.85-10.24-11.22-25.06-19.06-47.52-15.54-35.28,5.45-63.25,41.11-70,68.52a57.39,57.39,0,0,0-.3,10.15c.11,1.43-.37,2.92-1.58,2.92a17.72,17.72,0,0,0-4.56.78c-11.79,4.44-25.5,7.27-28.94,6-5-1.81-9.2-6.18-9.33-7.21-3.67-31-3.8-67.7.28-110.9.19-1.47,0-2.13.63-2.78,3.5-3.46,5.55-39.36,5.66-46.25a3.83,3.83,0,0,1,1.4-3.15c3.89-3.39,21.86-9.87,31.1-10a2,2,0,0,1,2.16,1.29c10.35,24.28-1.47,61.8.2,91.35,0,.13.24.13.24.13,19.2-12.14,44-25.06,74.86-26.89,30.43-1.82,58.82,3.78,79.73,24.6,1.87,1.86,4.47,2.52,5.74,3.65C868.05,561.4,868.41,599.78,846.45,627.36Z"/></svg>