<svg id="레이어_1" data-name="레이어 1" xmlns="http://www.w3.org/2000/svg" viewBox="0 0 1080 1080"><defs><style>.cls-1{fill:#b4b4b4;}</style></defs><path class="cls-1" d="M449.23,734.24A141.3,141.3,0,0,0,486,696.3c13.44-18.91,5.4-21.6-8.65-20.38-37.37,3.19-54.36,8.9-61.93,8.9-8.12,0-3.07-32.84-5.08-60.53-1.64-22.57-11.63-19.95-20.75-12.41-15.78,13.69-26.61,37.81-29.74,35.41-7.07-5.29-14.59-14-23.78-29.64-8.88-15.17-17.07-36.06-21.85-37-15.39-3-11.52,34.95-2.16,67.38,9.12,31.67,28,67.77,58.25,94,33,28.51,70.88,38.54,102.61,41.66,25.27,2.48,47.42-1.49,46.88-10.6C519.09,760.44,481,764.05,449.23,734.24Z"/><path class="cls-1" d="M558.32,532c-26.5-25.25-39.92-37-39.92-37.07-9-8.56-18-17-26.31-24.93-66.33-63.45-81-120.37-31.3-153.86,13.41-9,31-11,50.63-12.23,0,0,9.57-.52,11-7,1.25-6-2.75-10.44-10-11.06-61.84-5.37-141.64,15.76-148.9,111.07,0,0-9,75.88,103.75,173,0,0,116,101.73,128.67,113.69,30,28.45,57.11,84.46-27.82,101.2,0,0-9.46,1.62-9.25,8.1.31,6.08,6.57,8,10,7.53,38.08-2,68.75-9.39,98.11-31.68,19.58-14.78,58.94-71-10.92-146.46C656,622.28,609.38,579.11,558.32,532Z"/><path class="cls-1" d="M707.74,397.66c-16.68-5.75-23.17-5.62-36.14-20.14-10.82-15.27,7.63-19.68,22.29-12.54,20.08,9.79,36.75-5.82,25.81-18.62-11.89-14-38.63-21.55-61-24.53-16.84-2.34-29.8-1.15-51.42-2.34-25.16-1.6-47.68-22.2-54.75-5.92-5.27,12,26.26,31.11,13.29,63.75-9.62,24.3-18,39-22,70.35-1.91,15-1.34,26.8,1,36.06a45.61,45.61,0,0,0,35.11,32.55c6.39.78,61.27,2.69,39.21-53.74-11.07-24.6-19.76-51.13-5.13-56.88s28.86,4.54,34.59,24.73c11.45,40.45,37.07,48.3,68,27.81C742.33,441.1,743.52,409.9,707.74,397.66Z"/><path class="cls-1" d="M1079.43,515.55C1065.91,217.67,813.54-13,515.53.57S-13,266.4.57,564.37s265.91,528.47,563.86,515.07S1093,813.44,1079.43,515.55ZM554.69,863.89C375.8,872,224.22,733.54,216.11,554.64S346.43,224.12,525.31,216v.1h.11C704.24,208,855.78,346.41,863.89,525.26h0C872,704.17,733.57,855.78,554.69,863.89Z"/></svg>