<svg id="레이어_1" data-name="레이어 1" xmlns="http://www.w3.org/2000/svg" viewBox="0 0 1080 1080"><defs><style>.cls-1{fill:#b4b4b4;}</style></defs><path class="cls-1" d="M707.59,562.77a140.35,140.35,0,0,0-28.25-38.19c-59.49-56.93-157-51.69-217.81,11.8-2.29,2.39-4.45,4.86-6.61,7.34.08,1.23.19,2.46.34,3.72,6.1,55.21,56.85,103.27,125,125.88h0C634.76,648.16,679,608.39,707.59,562.77Z"/><path class="cls-1" d="M717,586.16a402.41,402.41,0,0,1-50.26,47.14,436.32,436.32,0,0,1-69.47,45,276,276,0,0,0,67.31,8.92,259,259,0,0,0,49.55-4.32h0A155.78,155.78,0,0,0,717,586.16Z"/><path class="cls-1" d="M416.6,567.44c-9.7-94.7,82.43-170.69,205.82-169.69a293.72,293.72,0,0,1,119.06,26.13,170.37,170.37,0,0,0-4-20.15c-27.78-106.42-152.78-154.38-279.11-107S252.1,468.85,279.92,575.26h0c15.46,59.31,61.1,100.44,120.39,117a185.05,185.05,0,0,1,18.45-111.09A132,132,0,0,1,416.6,567.44Z"/><path class="cls-1" d="M505.48,696.78c-39.22-25.14-68.66-59.29-81.9-97.81a155.07,155.07,0,0,0-.54,98.41A249.58,249.58,0,0,0,505.48,696.78Z"/><path class="cls-1" d="M524.88,708a378.68,378.68,0,0,1-89.62,16.22,140.56,140.56,0,0,0,24,30.24c59.53,57,157.07,51.78,217.81-11.79h0c.8-.82,1.54-1.69,2.31-2.44-7.19.47-14.49.65-21.9.65A292,292,0,0,1,524.88,708Z"/><path class="cls-1" d="M1079.43,515.55C1065.91,217.67,813.54-13,515.53.57S-13,266.4.57,564.37s265.93,528.47,563.86,515.07S1093,813.44,1079.43,515.55ZM733.92,730.8a195.86,195.86,0,0,1-31.47,43.39C631.86,848,518.4,854.11,449.28,787.91a164.35,164.35,0,0,1-41-63.44C352.64,722.76,302.4,706,266.5,673.36,176.58,591.67,210,441.27,341.07,337.44s310.23-121.67,400.22-40c43.52,39.53,58.17,95.15,46.85,153.77,42.12,31.3,70.41,73.46,75.15,119.86C870.87,644.9,816.63,707.25,733.92,730.8Z"/><path class="cls-1" d="M742.52,433.78a270.73,270.73,0,0,0-108.45-23.27c-99.62-.82-175.8,52.1-179.28,121,70.8-71,182.11-76.14,250.36-10.8a166,166,0,0,1,15.94,17.69C737.36,504.67,745.2,468.73,742.52,433.78Z"/><path class="cls-1" d="M786.37,459.67c-8,34.26-24.76,69.3-49.68,102.6A174.47,174.47,0,0,1,754,671.64h0c58.62-22.79,95.19-68.39,89.44-121.25C839.61,515.83,818.38,484.13,786.37,459.67Z"/></svg>