<svg id="레이어_1" data-name="레이어 1" xmlns="http://www.w3.org/2000/svg" viewBox="0 0 1080 1080"><defs><style>.cls-1{fill:#b4b4b4;}</style></defs><path class="cls-1" d="M540,0C241.77,0,0,241.77,0,540s241.77,540,540,540,540-241.77,540-540S838.23,0,540,0ZM463,811.73,350.72,864.11c-10.13-57.89,23.89-124.4,75.73-148.61l112.32-52.38C548.9,720.86,515,787.41,463,811.73ZM589.27,603,321.93,727.62l-2.85-16.18c-9.47-54.07,22.22-116.25,70.78-138.89L657.22,447.92l2.83,16.2C669.6,518.18,637.83,580.35,589.27,603ZM700.92,391.07,289.85,582.6c-11.92-68,28-146.43,89.23-175L790.15,216C802.07,284.15,762.13,362.53,700.92,391.07Z"/></svg>