<svg id="레이어_1" data-name="레이어 1" xmlns="http://www.w3.org/2000/svg" viewBox="0 0 1080 1080"><defs><style>.cls-1{fill:#b4b4b4;}</style></defs><path class="cls-1" d="M419.56,714.38c-3.2-1.75-6.57-.39-13.47,5.48-2.84,2.33-25.91,22.48-51.46,44.77,6.95,7.24,15.21,13.46,26.11,19.52a111.67,111.67,0,0,0,30.52,12c5.33-33.45,10.24-63.76,10.75-67.26C423.37,719.86,422.71,716.12,419.56,714.38Z"/><path class="cls-1" d="M656.06,714.37c-3.2,1.94-3.84,5.47-2.55,14.46.65,3.5,5.38,33.81,10.65,67.26a112.49,112.49,0,0,0,30.46-11.75h0a111.63,111.63,0,0,0,26.18-19.53c-25.42-22.28-48.47-42.43-51.4-45C662.6,714,659.17,712.61,656.06,714.37Z"/><path class="cls-1" d="M540,241.74c-165,0-300,126.25-310.6,286.15C236.77,520.66,244,513.62,251,507c8.86-8.41,20.74-19,31-25.21,12.36-7.61,12.87-12.72,21.59-7.61,1.25.58,2.85,1.74,6.08,3.5,3.7,2.17,2.81,2.94,14.53,10.37,9.14,5.45,18.07,13.66,28.7,15.83a84.13,84.13,0,0,1,14.14,4.09c9-6.65,21-16.61,29.64-23.07,9.24-6.84,18.07-14.08,27.07-21.51,5.7-4.47,30.44-16,32.84-20.3,12.91-23.25,42.81-35,65.49-48.89,4.17-2.34,9.63-7.39,14-11.32a46.4,46.4,0,0,0,5.85-7.42A156.05,156.05,0,0,1,551.42,361c1.21-1.38,2.81-2,6.39-1.18,8.36,1.56,17.32,5.69,21.13,8.79,22.56,18.6,45.86,26.42,73,37,15.46,6.06,22.41,9.37,33.79,21.51,8.55,9,10.75,23.65,19.34,32.25,21.41,21.3,42.61,27.14,65.73,42.39s31.57,39.32,59.28,33.46h0c7.92-1.76,15-5.3,20.09-11.95C837.25,365.65,703.35,241.74,540,241.74Z"/><path class="cls-1" d="M1079.43,515.55C1065.91,217.67,813.54-13,515.53.57S-13,266.4.57,564.37s265.91,528.47,563.86,515.07S1093,813.44,1079.43,515.55ZM462.54,723.37c-2.12,29.91-24.48,181.8-24.48,181.8l-42.18-13.5,8.84-54.94a206.2,206.2,0,0,1-43-18,221,221,0,0,1-38.26-27c-23,20-41.8,36.35-41.8,36.35l-33.8-28.74S365,700.3,389.32,682.72c17.6-12.91,32.92-13.31,48.42-4.72,0,0,0,0-.07-.2a4.31,4.31,0,0,0,1.61,1,11.2,11.2,0,0,1,1.73,1h0C456.38,688.39,464.14,701.66,462.54,723.37Zm97.79,187.46h-43.6V694.45h43.6Zm25-283c-11.43-3.16-21.73-2.14-28.67,6.64-10.18,12.68-59.77,3.31-75.9,1.75-2.93-.19-9.51-2.33-10.75-3.73s-3.71-2.52,1-6,43.06-8.21,49-10.58c13.39-5.44,14.81-10.54,22.11-18.56,5.59-6.07,27.24-12.32,11.67-25.2-4.75-3.92-12.38,2.33-16.26-4.7-4-7.24-3.3-15.25-8.72-22.3-4.7-6.06-10.31-10.72-16.09-15.63-11.38-9.76-20.61-22.3-32-32.05-8.81-7.61-20.75-6.85-31.4-9.57-15.57-3.93,8.29-11.36,13-12.33,16-3.5,28.71-14.07,42.87-21.51,8.65-4.66,16.41-16,26.82-15.64,4.86.4,11.82.4,6.86,6.07-4.41,4.91-4.93,12.14-8.67,17.39C524.07,471,509,473.56,507.72,486c-2.86,28,38.51,48.7,56,62.4,9.82,7.61,15.68,17,19.54,28.69,4.06,12.34,12,19.57,15.77,22.88,13.6,12.53,40.42,1,48,15.83h0c6.21,3.34-15.92,3.54-23.92,6.84C609.31,628.37,593.38,629.93,585.34,627.79ZM793.79,828.52s-18.83-16.6-41.85-36.75a210.62,210.62,0,0,1-38.1,27,224.27,224.27,0,0,1-43.12,18.17c4.81,30.11,8.71,54.72,8.71,54.72l-42.23,13.5s-22.08-151.88-24.25-182c-1.55-21.71,6.36-35,21.77-43.57,0,0,.64-.39,1.54-.81a4.53,4.53,0,0,0,1.71-1h0c15.47-8.4,30.85-8,48.39,4.91,24.28,17.58,141.22,117.07,141.22,117.07Zm5.93-91.09-9-7.42a304.3,304.3,0,0,0,52.38-111.8,62.57,62.57,0,0,1-5.43,3.5c-7.48,4.13-14.84,10.54-23.09,12.72-12.39,3.31-1.09-12.72-4.95-16.61-6.36-6.65-17.55,6.42-21.44,10.55-8.8,9.37-18.5,14.86-31.64,14.46-13.57-.38-26.78.2-38.93,6.65-2.61-9.6,10.63-19.17,16.35-24.85a26.86,26.86,0,0,0,7.77-17.19c.71-10.34,1.18-11.52-3.31-26-4-12.34-23.22-18.79-27.67-14.66s7.14,17.58,4,20.33c-3.14,2.92-13.54-7.23-21.93-3.73-7.88,3.55-22.32-12.72-28.65-19.33-7.45-7.82-16.42-16.65-19.7-27.19-3-10.54-2.64-20.92-8.1-30.69s-11.93-19.33-14-30.3c-1.89-10.34-1.23-17.38-8.23-26-6.06-7.63-13.77-13.5-20.4-20.55-6.47-6.65-9.19-12.12,2.53-9.95,4.08.58,12,0,15.48,2.54a77.2,77.2,0,0,0,16.91,9,37.2,37.2,0,0,0-6.36-11.31c-7.72-9.38-41.64-19.95-42.23-32.05-.34-7.82-9.92-14.27-17-21.7-2.09-2.38-7-2.38-8.2-1.75-3.08,1.54-3.76,3.88-6.5,7-1.41,1.61-4,6.67-6.45,10s-6.74,9.18-10.71,11.91c-21.59,15.24-50.62,29.32-61.74,53.36-2.12,4.51-26,17.81-31.3,22.87-8.45,7.81-16.79,15.63-25.5,23.25-8.94,7.64-17.74,15.45-26.78,23.08a116.8,116.8,0,0,0-22.17,16.22c-10.83,10.18-21.33,10.38-31.2,13.49-11.18,3.54-32.27,14.27-36.95,12.33-8.39-3.33,23.43-31.27,20.84-38.52-2.46-6.83,3.8-18.57-3.29-20.13C301.36,496,307,479,302.56,476.28c-4.15-2.52-8.37,1.17-12.27,3.93-10,6.65-27.25,27.34-27.25,27.34-17.66,23.46-25.59,38.7-29,58.27a173.59,173.59,0,0,0-2.57,23.26c.49,3.7,1.06,7.42,1.68,11.12,8.71-5.64,21.63-8.58,29.5-11.89,15-6.07,28.34-19.38,45.46-19.38,15-.19,30.28-.39,44.25-6.46,11.89-5.25,22.84-13.65,36.13-15.05-1.53,9-47.81,45.16-37,51a17.48,17.48,0,0,0,4,1.56c4.42.58,24.42-3.32,26.85-2.74a12,12,0,0,1,2.57.78,6.57,6.57,0,0,1,1.28.58h.11c24.93,16.42,3.82,7.24-6.17,11.36-10.58,4.09-38.1,10.16-53.9,17.59-24.88,11.31-59.42,0-77.73-5.88-5.54-1.75-8.9-2.71-11.69-3.3a303.39,303.39,0,0,0,51.25,110l-9,7.43a327.74,327.74,0,0,1-68.65-201.14c0-182,147.55-329.56,329.55-329.56h0c182,0,329.57,147.56,329.57,329.56A328.39,328.39,0,0,1,799.72,737.43Z"/></svg>